<?xml version="1.0" standalone="no"?>
<!DOCTYPE svg PUBLIC "-//W3C//DTD SVG 1.1//EN" "http://www.w3.org/Graphics/SVG/1.1/DTD/svg11.dtd" >
<svg>
<metadata>
Created by FontForge 20090914 at Thu Apr  5 22:33:55 2012
 By www-data
2006 Lukasz Dziedzic published by FSI FontShop International GmbH
</metadata>
<defs>
<font id="ClanNarrowLF-Medium" horiz-adv-x="378" >
  <font-face 
    font-family="ClanNarrowLF-Medium"
    font-weight="500"
    font-stretch="semi-condensed"
    units-per-em="1000"
    panose-1="2 1 6 6 3 1 1 2 1 4"
    ascent="787"
    descent="-213"
    x-height="603"
    cap-height="750"
    bbox="-122 -187 942 910"
    underline-thickness="39"
    underline-position="-43"
    unicode-range="U+000D-U+FB02"
  />
<missing-glyph horiz-adv-x="571" 
d="M66 750h439v-750h-439v750zM429 76v598h-287v-598h287z" />
    <glyph glyph-name=".notdef" horiz-adv-x="571" 
d="M66 750h439v-750h-439v750zM429 76v598h-287v-598h287z" />
    <glyph glyph-name=".null" horiz-adv-x="0" 
 />
    <glyph glyph-name=".null" horiz-adv-x="0" 
 />
    <glyph glyph-name="nonmarkingreturn" unicode="&#xd;" horiz-adv-x="258" 
 />
    <glyph glyph-name="breve" unicode="&#x2d8;" 
d="M328 803q0 -72 -33.5 -111t-105.5 -39q-75 0 -107 39t-32 111h80q0 -45 16.5 -64.5t42.5 -19.5t42 19.5t16 64.5h81z" />
    <glyph glyph-name="dotaccent" unicode="&#x2d9;" 
d="M260 742q0 -59 -71 -59q-35 0 -53 13.5t-18 45.5q0 59 71 59t71 -59z" />
    <glyph glyph-name="ring" unicode="&#x2da;" 
d="M83 743q0 38 25 60.5t82 22.5q54 0 81 -23t27 -60q0 -82 -108 -82q-52 0 -79.5 20t-27.5 62zM143 743q0 -16 11 -25t38 -9q48 0 48 34q0 15 -11 24.5t-37 9.5q-27 0 -38 -9.5t-11 -24.5z" />
    <glyph glyph-name="hungarumlaut" unicode="&#x2dd;" 
d="M255 803l-100 -142h-78l55 142h123zM425 803l-111 -142h-87l73 142h125z" />
    <glyph glyph-name="ogonek" unicode="&#x2db;" 
d="M243 -179q-57 0 -82.5 24t-25.5 60q0 41 25.5 69.5t69.5 43.5l48 -18q-27 -10 -40 -27t-13 -38q0 -37 50 -38q26 0 49 12l10 -66q-39 -22 -91 -22z" />
    <glyph glyph-name="caron" unicode="&#x2c7;" 
d="M138 661l-93 142h90l55 -94l55 94h91l-95 -142h-103z" />
    <glyph glyph-name="dotlessi" unicode="&#x131;" horiz-adv-x="291" 
d="M84 0v599l122 6v-605h-122z" />
    <glyph glyph-name="fraction" unicode="&#x2044;" horiz-adv-x="279" 
d="M430 750l-466 -750h-86l465 750h87z" />
    <glyph glyph-name="fi" unicode="&#xfb01;" horiz-adv-x="644" 
d="M217 0h-119v509h-74v94h74v30q0 35 11 65t33.5 52t57.5 34.5t83 12.5q23 0 43.5 -2.5t34.5 -6.5l-4 -85q-10 2 -22.5 4t-25.5 2q-50 0 -71 -21t-21 -59v-26h341v-603h-122v509h-219v-509zM569 742q0 -59 -71 -59q-35 0 -53 13.5t-18 45.5q0 59 71 59t71 -59z" />
    <glyph glyph-name="fl" unicode="&#xfb02;" horiz-adv-x="616" 
d="M417 0v708q-21 3 -41 5t-40 2q-67 0 -93 -23t-26 -67v-22h100v-94h-100v-509h-119v509h-74v94h73v28q0 36 12 67t40.5 54t74.5 36t114 13q28 0 52 -2t47.5 -4.5t48 -5.5t51.5 -4v-785h-120z" />
    <glyph glyph-name="Lslash" unicode="&#x141;" horiz-adv-x="543" 
d="M525 122l-4 -122h-418v291l-66 -31l-10 109l76 36v345h130v-289l173 82l11 -114l-184 -84v-223h292z" />
    <glyph glyph-name="lslash" unicode="&#x142;" horiz-adv-x="337" 
d="M31 454l75 39v293l120 7v-248l80 43l1 -104l-81 -45v-439h-120v386l-73 -40z" />
    <glyph glyph-name="Zcaron" unicode="&#x17d;" horiz-adv-x="558" 
d="M36 0v89l286 471l44 66l-2 2h-320l5 122h467v-99l-280 -461l-43 -65l1 -3h323l-3 -122h-478zM221 794l-101 115h108l57 -65l57 65h107l-102 -115h-126z" />
    <glyph glyph-name="zcaron" unicode="&#x17e;" horiz-adv-x="489" 
d="M222 171l-44 -64l1 -3h269l-4 -104h-399v88l217 341l44 66l-1 2h-252l4 106h384v-88zM197 661l-93 142h90l55 -94l55 94h91l-95 -142h-103z" />
    <glyph glyph-name="space" unicode=" " horiz-adv-x="258" 
 />
    <glyph glyph-name="exclam" unicode="!" horiz-adv-x="278" 
d="M92 207l-19 543h130l-19 -543h-92zM212 55q0 -31 -17 -48.5t-54 -17.5q-36 0 -53.5 15.5t-17.5 50.5q0 32 17.5 49.5t53.5 17.5q37 0 54 -17.5t17 -49.5z" />
    <glyph glyph-name="quotedbl" unicode="&#x22;" horiz-adv-x="379" 
d="M342 770l-22 -254h-77l-17 254h116zM163 770l-22 -254h-77l-17 254h116z" />
    <glyph glyph-name="numbersign" unicode="#" horiz-adv-x="579" 
d="M139 299l22 151h-120v95h132l27 205h94l-27 -205h89l27 205h93l-27 -205h90v-95h-101l-22 -151h122v-97h-134l-26 -202h-92l26 202h-90l-27 -202h-93l26 202h-88v97h99zM233 299h91l21 151h-90z" />
    <glyph glyph-name="dollar" unicode="$" horiz-adv-x="543" 
d="M190 -76l7 66q-44 5 -84 16.5t-69 29.5l16 116q32 -19 70.5 -33t79.5 -21l26 231q-35 15 -69.5 32.5t-61.5 43t-44 61t-17 85.5q0 100 61.5 154t180.5 56l8 64l72 -6l-8 -62q33 -5 61.5 -12t47.5 -16l-8 -112q-26 8 -55.5 14.5t-59.5 10.5l-25 -204q34 -14 67 -31.5
t59 -43.5t42 -62.5t16 -88.5q0 -115 -58 -169t-181 -56l-8 -69zM405 195q0 40 -29 64t-73 43l-26 -208q67 2 97.5 27.5t30.5 73.5zM152 557q0 -36 28.5 -56.5t71.5 -37.5l21 183q-65 -2 -93 -26.5t-28 -62.5z" />
    <glyph glyph-name="percent" unicode="%" horiz-adv-x="671" 
d="M314 588q0 -90 -35.5 -131.5t-104.5 -41.5q-72 0 -105.5 42t-33.5 131q0 92 33 132.5t107 40.5q68 0 103.5 -39t35.5 -134zM233 589q0 56 -14.5 75t-43.5 19t-44 -18.5t-15 -75.5q0 -56 15 -75t44 -19t43.5 18.5t14.5 75.5zM554 663l-380 -636l-70 56l380 636zM636 164
q0 -91 -35.5 -132t-104.5 -41q-72 0 -105.5 42t-33.5 131q0 92 33 133.5t106 41.5q68 0 104 -40t36 -135zM555 164q0 55 -15 73.5t-44 18.5t-43.5 -18t-14.5 -74t14.5 -74t43.5 -18q30 0 44.5 18t14.5 74z" />
    <glyph glyph-name="ampersand" unicode="&#x26;" horiz-adv-x="656" 
d="M603 -9q-35 19 -72 43.5t-74 54.5q-42 -45 -97 -73t-124 -28q-54 0 -92.5 16.5t-63 44.5t-35.5 65t-11 77q0 37 10.5 69.5t28 60t40.5 51.5t48 45q-29 48 -45 91.5t-16 78.5q0 37 10.5 69t33 55.5t58 37t86.5 13.5q40 0 73 -10t56 -29t36 -45.5t13 -59.5q0 -35 -14 -64.5
t-37 -56t-52 -50.5l-59 -48q29 -38 65 -76t77 -74q18 34 31 70t20 69h102q-5 -40 -23 -95t-50 -111q60 -45 121 -77zM255 105q35 0 66 14.5t57 38.5q-43 41 -82.5 83.5t-73.5 87.5q-29 -29 -47 -60t-18 -67q0 -47 26 -72t72 -25zM211 587q0 -21 9.5 -48t26.5 -57
q42 32 71.5 61.5t30.5 64.5q0 29 -17.5 43t-46.5 14q-32 0 -53 -19.5t-21 -58.5z" />
    <glyph glyph-name="quotesingle" unicode="'" horiz-adv-x="201" 
d="M158 770l-22 -254h-77l-17 254h116z" />
    <glyph glyph-name="parenleft" unicode="(" horiz-adv-x="324" 
d="M320 787q-63 -100 -94 -216t-31 -240q0 -127 31.5 -242t92.5 -214l-93 -8q-70 88 -108 208.5t-38 255.5q0 139 37 254t109 209z" />
    <glyph glyph-name="parenright" unicode=")" horiz-adv-x="323" 
d="M98 794q72 -94 109 -209t37 -254q0 -135 -38 -255.5t-108 -208.5l-93 8q60 99 91.5 214t31.5 242q0 124 -30.5 240t-93.5 216z" />
    <glyph glyph-name="asterisk" unicode="*" horiz-adv-x="352" 
d="M207 787l7 -104l100 26l20 -61l-98 -38l60 -89l-45 -36l-72 82l-75 -83l-47 35l60 91l-98 38l21 61l100 -26l9 104h58z" />
    <glyph glyph-name="plus" unicode="+" horiz-adv-x="550" 
d="M326 281v-163h-106v163h-160v112h160v165h106v-165h164v-112h-164z" />
    <glyph glyph-name="comma" unicode="," horiz-adv-x="240" 
d="M119 131q37 0 54.5 -21t17.5 -56q0 -17 -7 -42.5t-18.5 -52.5t-25.5 -53.5t-28 -46.5l-42 11l24 120q-17 8 -31 26t-14 41q0 32 16 53t54 21z" />
    <glyph glyph-name="hyphen" unicode="-" horiz-adv-x="364" 
d="M309 389v-92h-254v92h254z" />
    <glyph glyph-name="period" unicode="." horiz-adv-x="242" 
d="M194 61q0 -33 -17.5 -52.5t-55.5 -19.5t-55 17t-17 55q0 35 17 53.5t55 18.5t55.5 -18.5t17.5 -53.5z" />
    <glyph glyph-name="slash" unicode="/" horiz-adv-x="412" 
d="M414 790l-313 -912h-100l311 912h102z" />
    <glyph glyph-name="zero" unicode="0" horiz-adv-x="574" 
d="M536 373q0 -104 -14.5 -177t-45 -118.5t-78 -66.5t-112.5 -21q-66 0 -113 21t-77 66.5t-44 118.5t-14 177q0 108 14 182t44 119t77.5 64.5t114.5 19.5q65 0 112 -19.5t77 -64.5t44.5 -119t14.5 -182zM413 375q0 85 -7.5 137.5t-23 81.5t-39 38.5t-55.5 9.5q-33 0 -57 -10
t-40 -39t-23.5 -81.5t-7.5 -136.5q0 -87 7.5 -140.5t23.5 -83t40 -39t57 -9.5q32 0 55.5 10t39 39.5t23 83t7.5 139.5z" />
    <glyph glyph-name="one" unicode="1" horiz-adv-x="430" 
d="M334 0h-128v505l2 81l-2 1l-66 -45l-66 -42l-14 108l200 143h74v-751z" />
    <glyph glyph-name="two" unicode="2" horiz-adv-x="565" 
d="M509 550q0 -53 -21.5 -104t-60 -103.5t-91 -107.5t-115.5 -114l1 -3h289l-3 -118h-450v86l120 128t103 117.5t72 107.5t27 98q0 45 -29 74t-96 29q-47 0 -89.5 -19t-77.5 -48l-32 107q41 34 97 56t125 22q115 0 173 -55.5t58 -152.5z" />
    <glyph glyph-name="three" unicode="3" horiz-adv-x="565" 
d="M520 225q0 -53 -15.5 -96.5t-48 -74t-82 -47t-117.5 -16.5q-65 0 -115.5 15t-87.5 38l23 105q40 -23 82 -35t93 -12q75 0 110 34t35 93q0 28 -9.5 50t-33 36.5t-61.5 22t-95 7.5v95q54 0 89.5 7.5t57.5 21.5t31 35t9 48q0 46 -32 68.5t-93 22.5q-53 0 -96 -17.5
t-79 -47.5l-30 103q38 33 93 55t121 22q110 0 171.5 -51t61.5 -146q0 -60 -27.5 -100.5t-76.5 -63.5v-2q59 -20 90.5 -61t31.5 -109z" />
    <glyph glyph-name="four" unicode="4" horiz-adv-x="585" 
d="M475 153v-153h-116v153h-308l-11 85l283 512h152v-486h77l-3 -111h-74zM368 549l4 81l-2 1l-38 -72l-158 -295h188z" />
    <glyph glyph-name="five" unicode="5" horiz-adv-x="546" 
d="M508 258q0 -129 -60.5 -198t-189.5 -69q-119 0 -202 53l22 106q39 -23 78 -35.5t89 -12.5q75 0 106.5 35t31.5 110q0 66 -32.5 92.5t-101.5 26.5q-39 0 -77 -7.5t-67 -21.5l-44 50l27 363h383l5 -117h-288l-12 -173q26 7 54 11t57 4q108 0 164.5 -53.5t56.5 -163.5z" />
    <glyph glyph-name="six" unicode="6" horiz-adv-x="564" 
d="M527 262q0 -140 -62 -205.5t-175 -65.5q-61 0 -108 18t-79 60.5t-48.5 112t-16.5 173.5q0 205 75 304.5t221 99.5q43 0 80 -6.5t73 -20.5l-10 -113q-32 12 -62.5 17.5t-66.5 5.5q-91 0 -135.5 -49.5t-52.5 -158.5l3 -2q30 24 68.5 38t81.5 14q108 0 161 -54t53 -168z
M404 264q0 63 -27.5 91t-88.5 28q-15 0 -33 -4t-34.5 -11.5t-31.5 -18.5t-24 -24q1 -65 8 -108t22 -68.5t38.5 -36t55.5 -10.5q57 0 86 38t29 124z" />
    <glyph glyph-name="seven" unicode="7" horiz-adv-x="563" 
d="M523 641l-265 -641h-140l284 628h-360l6 122h475v-109z" />
    <glyph glyph-name="eight" unicode="8" horiz-adv-x="568" 
d="M38 213q0 57 28.5 104t79.5 78q-36 25 -59.5 64.5t-23.5 104.5q0 91 53 143t169 52q115 0 168 -50.5t53 -144.5q0 -54 -23 -97t-65 -72q23 -12 43.5 -27.5t35.5 -37.5t24 -51t9 -67q0 -112 -62 -166.5t-183 -54.5q-128 0 -187.5 55.5t-59.5 166.5zM410 202q0 30 -12 51
t-32 36t-46.5 26l-55.5 22l-17 7q-38 -23 -63.5 -55t-25.5 -77q0 -64 30.5 -91t99.5 -27q55 0 88.5 24.5t33.5 83.5zM178 559q0 -29 11.5 -48.5t30.5 -33.5t44 -24t53 -19q40 24 59.5 52.5t19.5 67.5q0 51 -27 75t-85 24q-106 0 -106 -94z" />
    <glyph glyph-name="nine" unicode="9" horiz-adv-x="566" 
d="M527 408q0 -114 -18 -193t-53 -129t-88.5 -72.5t-123.5 -22.5q-52 0 -90 8t-75 25l17 108q33 -14 65 -21t70 -7q44 0 76 12.5t53 40.5t32.5 72t14.5 107l-2 1q-30 -23 -67 -34t-80 -11q-111 0 -165.5 60t-54.5 164q0 116 58.5 179.5t179.5 63.5q120 0 185.5 -83.5
t65.5 -267.5zM404 453q-1 55 -10 92.5t-25.5 60t-40.5 32t-54 9.5q-57 0 -86.5 -29.5t-29.5 -95.5q0 -63 29 -94.5t93 -31.5q39 0 71.5 13t52.5 44z" />
    <glyph glyph-name="colon" unicode=":" horiz-adv-x="242" 
d="M194 493q0 -33 -17.5 -52.5t-55.5 -19.5t-55 17t-17 55q0 35 17 53.5t55 18.5t55.5 -18.5t17.5 -53.5zM194 61q0 -33 -17.5 -52.5t-55.5 -19.5t-55 17t-17 55q0 35 17 53.5t55 18.5t55.5 -18.5t17.5 -53.5z" />
    <glyph glyph-name="semicolon" unicode=";" horiz-adv-x="245" 
d="M196 493q0 -33 -17.5 -52.5t-55.5 -19.5t-55 17t-17 55q0 35 17 53.5t55 18.5t55.5 -18.5t17.5 -53.5zM122 131q37 0 54.5 -21t17.5 -56q0 -17 -7 -42.5t-18.5 -52.5t-25.5 -53.5t-28 -46.5l-42 11l24 120q-17 8 -31 26t-14 41q0 32 16 53t54 21z" />
    <glyph glyph-name="less" unicode="&#x3c;" horiz-adv-x="550" 
d="M294 370l-72 -34v-3l72 -35l177 -89v-121l-391 214v63l390 220v-126z" />
    <glyph glyph-name="equal" unicode="=" horiz-adv-x="550" 
d="M70 375v97h410v-97h-410zM70 189v97h410v-97h-410z" />
    <glyph glyph-name="greater" unicode="&#x3e;" horiz-adv-x="550" 
d="M80 209l176 88l73 35v3l-73 34l-176 90v126l391 -220v-63l-391 -214v121z" />
    <glyph glyph-name="question" unicode="?" horiz-adv-x="463" 
d="M430 581q0 -83 -42.5 -141.5t-115.5 -103.5l-6 -129h-92l-7 173q32 22 58 42.5t44.5 42t28.5 45t10 51.5q0 43 -26 63.5t-73 20.5q-44 0 -79.5 -15.5t-63.5 -41.5l-42 99q33 32 86.5 52.5t116.5 20.5q103 0 153 -47t50 -132zM291 55q0 -31 -17 -48.5t-54 -17.5
q-36 0 -53.5 15.5t-17.5 50.5q0 32 17.5 49.5t53.5 17.5q37 0 54 -17.5t17 -49.5z" />
    <glyph glyph-name="at" unicode="@" horiz-adv-x="821" 
d="M422 577q57 0 82 -40h3l14 34l65 -4l-42 -265q-3 -18 -3 -35q0 -30 12.5 -51t45.5 -21q24 0 44 12t35 38t23.5 66.5t8.5 96.5q0 67 -17.5 124t-52 98.5t-86 64.5t-119.5 23q-82 0 -143 -30t-101 -81t-59.5 -119.5t-19.5 -146.5q0 -80 19 -149t58.5 -119.5t100.5 -79.5
t146 -29q54 0 97.5 9.5t77.5 23.5t58.5 30.5t40.5 31.5l28 -64q-48 -42 -124 -72t-178 -30q-95 0 -169 31t-124.5 89t-76.5 141t-26 187q0 90 25.5 171.5t75 143t123.5 98t172 36.5q80 0 144 -28t108.5 -79t68.5 -121t24 -154q0 -79 -16 -135t-42.5 -92t-61.5 -53t-72 -17
q-42 0 -71 18.5t-41 53.5l-3 1q-21 -32 -53.5 -52.5t-77.5 -20.5q-57 0 -93.5 43.5t-36.5 132.5q0 58 16 110.5t44 92.5t66.5 63.5t82.5 23.5zM477 460q-13 29 -50 29q-24 0 -45.5 -17t-37 -45t-24.5 -64t-9 -74q0 -86 59 -86q31 0 54.5 29.5t29.5 77.5z" />
    <glyph glyph-name="A" unicode="A" horiz-adv-x="654" 
d="M455 163h-264l-44 -163h-136l236 750h157l239 -750h-144zM304 572l-82 -295h203l-79 295l-19 79h-3z" />
    <glyph glyph-name="B" unicode="B" horiz-adv-x="626" 
d="M580 216q0 -51 -13.5 -91t-42.5 -67.5t-74 -42.5t-109 -15h-266v750h261q110 0 164.5 -48t54.5 -141q0 -66 -26.5 -105t-69.5 -57v-2q58 -17 89.5 -61t31.5 -120zM451 225q0 59 -26 84t-86 25h-140v-221h145q26 0 46 5.5t33.5 18.5t20.5 34.5t7 53.5zM431 537
q0 56 -23.5 77t-75.5 21h-132v-198h135q51 0 73.5 24t22.5 76z" />
    <glyph glyph-name="C" unicode="C" horiz-adv-x="544" 
d="M497 615q-26 11 -61.5 18.5t-73.5 7.5q-49 0 -83 -12.5t-55.5 -42.5t-31.5 -80t-10 -125q0 -80 10 -133t32 -84.5t57 -44.5t84 -13q39 0 72 8t62 22l14 -111q-32 -17 -76.5 -27.5t-89.5 -10.5q-154 0 -227 94t-73 300q0 195 74 288.5t233 93.5q41 0 84.5 -9t71.5 -22z
" />
    <glyph glyph-name="D" unicode="D" horiz-adv-x="666" 
d="M620 379q0 -104 -18.5 -176t-56 -117t-94 -65.5t-132.5 -20.5h-244v750h241q80 0 137.5 -20.5t94.5 -64.5t54.5 -115t17.5 -171zM485 380q0 76 -9.5 124.5t-29.5 76t-52 37.5t-78 10h-112v-508h113q44 0 75.5 10t52 38.5t30.5 79t10 132.5z" />
    <glyph glyph-name="E" unicode="E" horiz-adv-x="560" 
d="M525 119l-3 -119h-447v750h433l2 -120h-307v-187h261v-110h-261v-214h322z" />
    <glyph glyph-name="F" unicode="F" horiz-adv-x="534" 
d="M204 627v-197h255l-1 -117h-254v-313h-129v750h432l3 -123h-306z" />
    <glyph glyph-name="G" unicode="G" horiz-adv-x="616" 
d="M565 27q-38 -18 -92 -29t-111 -11q-84 0 -144 23t-98 70.5t-55.5 120.5t-17.5 173q0 102 19 175.5t58 120.5t99.5 69.5t143.5 22.5q48 0 97.5 -9t86.5 -25l-13 -117q-35 15 -77.5 23.5t-86.5 8.5q-53 0 -89.5 -12.5t-59.5 -43t-33 -82t-10 -130.5q0 -78 9.5 -129.5
t30.5 -82t55 -43t82 -12.5q52 0 91 13v282h115v-376z" />
    <glyph glyph-name="H" unicode="H" horiz-adv-x="677" 
d="M473 0v326h-269v-326h-129v750h129v-303h269v303h129v-750h-129z" />
    <glyph glyph-name="I" unicode="I" horiz-adv-x="303" 
d="M86 750h131v-750h-131v750z" />
    <glyph glyph-name="J" unicode="J" horiz-adv-x="495" 
d="M420 251q0 -72 -17.5 -122t-50.5 -81.5t-80 -46t-106 -14.5q-43 0 -76.5 8.5t-59.5 23.5l8 115q20 -13 47 -20.5t61 -7.5q69 0 105.5 34.5t36.5 113.5v496h132v-499z" />
    <glyph glyph-name="K" unicode="K" horiz-adv-x="645" 
d="M473 0l-189 332h-80v-332h-129v750h128v-308h84l182 308h147l-213 -356l225 -394h-155z" />
    <glyph glyph-name="L" unicode="L" horiz-adv-x="515" 
d="M497 122l-4 -122h-418v750h130v-628h292z" />
    <glyph glyph-name="M" unicode="M" horiz-adv-x="834" 
d="M219 750l170 -476l26 -76h3l25 76l172 476h144v-750h-117v431l2 81l-3 1l-26 -77l-157 -436h-87l-156 432l-26 77l-2 -1l1 -81v-427h-113v750h144z" />
    <glyph glyph-name="N" unicode="N" horiz-adv-x="682" 
d="M514 0l-283 455l-41 70l-2 -1l1 -81v-443h-114v750h113l264 -436l41 -69l2 1l-2 80v424h114v-750h-93z" />
    <glyph glyph-name="O" unicode="O" horiz-adv-x="676" 
d="M629 375q0 -107 -16 -180.5t-51.5 -120t-90.5 -67t-133 -20.5q-77 0 -132 21.5t-90 68t-52 120t-17 178.5t16.5 178.5t51.5 120t90 67.5t133 21t133 -21t90 -67.5t51.5 -120t16.5 -178.5zM494 375q0 81 -8 132.5t-26.5 81t-48.5 40.5t-73 11t-72.5 -11t-48 -40.5t-27 -81
t-8.5 -132.5t8.5 -132.5t27 -81.5t48 -41t72.5 -11t73 11.5t48.5 41t26.5 81t8 132.5z" />
    <glyph glyph-name="P" unicode="P" horiz-adv-x="600" 
d="M566 506q0 -119 -59.5 -179t-197.5 -60h-105v-267h-129v750h234q68 0 117 -14t80 -43.5t45.5 -76t14.5 -110.5zM434 507q0 74 -29 101.5t-96 27.5h-106v-260h106q32 0 55.5 5.5t39 20t23 40t7.5 65.5z" />
    <glyph glyph-name="Q" unicode="Q" horiz-adv-x="676" 
d="M629 375q0 -173 -44.5 -262t-144.5 -112l137 -110l-146 -41l-111 137q-72 3 -123.5 25.5t-84.5 69.5t-49 119t-16 174q0 105 16.5 178.5t51.5 120t90 67.5t133 21t133 -21t90 -67.5t51.5 -120t16.5 -178.5zM494 375q0 81 -8 132.5t-26.5 81t-48.5 40.5t-73 11t-72.5 -11
t-48 -40.5t-27 -81t-8.5 -132.5t8.5 -132.5t27 -81.5t48 -41t72.5 -11t73 11.5t48.5 41t26.5 81t8 132.5z" />
    <glyph glyph-name="R" unicode="R" horiz-adv-x="611" 
d="M554 527q0 -84 -31.5 -134.5t-91.5 -65.5l167 -327h-149l-135 302h-110v-302h-129v750h236q124 0 183.5 -53t59.5 -170zM421 522q0 65 -25.5 89.5t-82.5 24.5h-109v-231h106q58 0 84.5 24.5t26.5 92.5z" />
    <glyph glyph-name="S" unicode="S" horiz-adv-x="520" 
d="M490 217q0 -109 -64 -169.5t-182 -60.5q-59 0 -110.5 14t-93.5 39l18 117q42 -25 87 -38.5t96 -13.5q64 0 94.5 26.5t30.5 77.5q0 36 -24 58t-59.5 39t-77.5 33.5t-77.5 42t-59.5 64t-24 99.5q0 46 14 85.5t43.5 69t74 46t106.5 16.5q51 0 98.5 -10t85.5 -27l-16 -114
q-41 14 -80.5 22.5t-79.5 8.5q-35 0 -58 -7t-37.5 -19.5t-20.5 -29t-6 -35.5q0 -35 24 -56t59.5 -37t77.5 -32.5t77.5 -42t59.5 -65t24 -101.5z" />
    <glyph glyph-name="T" unicode="T" horiz-adv-x="537" 
d="M333 627v-627h-130v627h-190l3 123h505l3 -123h-191z" />
    <glyph glyph-name="U" unicode="U" horiz-adv-x="662" 
d="M598 254q0 -137 -67.5 -202t-198.5 -65t-199.5 65t-68.5 202v496h129v-494q0 -77 33.5 -111.5t105.5 -34.5t105 34t33 112v494h128v-496z" />
    <glyph glyph-name="V" unicode="V" horiz-adv-x="636" 
d="M623 750l-231 -750h-149l-231 750h142l146 -544l20 -78h3l19 78l148 544h133z" />
    <glyph glyph-name="W" unicode="W" horiz-adv-x="929" 
d="M536 750l107 -541l15 -79h3l12 80l95 540h128l-160 -750h-155l-102 537l-13 81h-3l-14 -81l-101 -537h-155l-160 750h133l94 -543l13 -80h3l14 79l107 544h139z" />
    <glyph glyph-name="X" unicode="X" horiz-adv-x="638" 
d="M411 391l202 -391h-146l-114 238l-32 74h-3l-33 -74l-111 -238h-149l199 388l-193 362h151l102 -210l34 -73h3l33 73l103 210h146z" />
    <glyph glyph-name="Y" unicode="Y" horiz-adv-x="620" 
d="M157 750l127 -310l29 -75h3l28 75l123 310h140l-229 -507v-243h-132v243l-234 507h145z" />
    <glyph glyph-name="Z" unicode="Z" horiz-adv-x="558" 
d="M36 0v89l286 471l44 66l-2 2h-320l5 122h467v-99l-280 -461l-43 -65l1 -3h323l-3 -122h-478z" />
    <glyph glyph-name="bracketleft" unicode="[" horiz-adv-x="316" 
d="M80 791h232v-90h-124v-742h124v-88h-232v920z" />
    <glyph glyph-name="backslash" unicode="\" horiz-adv-x="348" 
d="M94 790l270 -912h-96l-271 912h97z" />
    <glyph glyph-name="bracketright" unicode="]" horiz-adv-x="316" 
d="M237 -129h-233v88h124v742h-124v90h233v-920z" />
    <glyph glyph-name="asciicircum" unicode="^" horiz-adv-x="589" 
d="M295 708l-144 -234h-99l203 331h81l200 -331h-96z" />
    <glyph glyph-name="underscore" unicode="_" horiz-adv-x="393" 
d="M378 -41v-76h-360v76h360z" />
    <glyph glyph-name="grave" unicode="`" 
d="M192 661l-106 142h138l59 -142h-91z" />
    <glyph glyph-name="a" unicode="a" horiz-adv-x="529" 
d="M370 63l-3 1q-25 -35 -64 -54t-89 -19q-78 0 -125 47t-47 149q0 86 51 135.5t148 49.5q32 0 60.5 -5t51.5 -13v49q0 57 -27 81t-88 24q-44 0 -79 -8.5t-73 -25.5l-10 101q41 20 86.5 29t96.5 9q58 0 98 -13t65.5 -40.5t37 -70.5t11.5 -104v-385h-91zM353 268
q-11 6 -33.5 11.5t-56.5 5.5q-57 0 -82.5 -24.5t-25.5 -72.5q0 -54 25 -75.5t66 -21.5q21 0 40.5 6.5t34 18t23.5 26.5t9 32v94z" />
    <glyph glyph-name="b" unicode="b" horiz-adv-x="577" 
d="M539 303q0 -86 -15 -145.5t-43.5 -97.5t-69.5 -55t-93 -17q-49 0 -87.5 18t-61.5 48l-3 -1l-17 -53h-79v786l119 7v-155l-2 -80l3 -2q29 28 65.5 42t76.5 14q48 0 86 -16t65 -52.5t41.5 -95.5t14.5 -145zM416 301q0 64 -8 104t-23 62t-37 29.5t-50 7.5q-35 0 -63.5 -15.5
t-45.5 -42.5v-296q14 -24 41 -42t69 -18q27 0 49 8.5t37 31.5t23 64.5t8 106.5z" />
    <glyph glyph-name="c" unicode="c" horiz-adv-x="451" 
d="M408 479q-22 9 -47.5 14.5t-51.5 5.5q-41 0 -69 -10t-45.5 -33.5t-25.5 -61t-8 -91.5q0 -114 37 -161t108 -47q59 0 105 26l9 -98q-24 -17 -60 -26t-78 -9q-121 0 -182.5 75t-61.5 240q0 155 58.5 232t187.5 77q35 0 70 -7.5t61 -18.5z" />
    <glyph glyph-name="d" unicode="d" horiz-adv-x="575" 
d="M415 0l-13 54l-3 1q-25 -32 -62 -49.5t-89 -17.5q-107 0 -158.5 75t-51.5 241q0 309 208 309q41 0 77.5 -14t64.5 -43l2 1l-2 80v149l119 7v-793h-92zM388 448q-14 24 -42.5 38.5t-64.5 14.5q-33 0 -56 -10t-37 -33.5t-20.5 -62.5t-6.5 -96q0 -60 6 -100t20 -64t36.5 -34
t56.5 -10q46 0 71.5 19t36.5 40v298z" />
    <glyph glyph-name="e" unicode="e" horiz-adv-x="533" 
d="M305 -11q-140 0 -203.5 78.5t-63.5 245.5q0 148 57.5 223.5t178.5 75.5q103 0 163 -65.5t60 -211.5q0 -15 -1 -31t-3 -30h-332q2 -50 12 -84t29.5 -54.5t48.5 -29t69 -8.5t75.5 8t70.5 23l13 -101q-34 -18 -78 -28.5t-96 -10.5zM386 358q-1 84 -31 117t-80 33
q-60 0 -86 -34.5t-30 -115.5h227z" />
    <glyph glyph-name="f" unicode="f" horiz-adv-x="368" 
d="M98 0v509h-74v94h73v30q0 35 11 65t34 52t58 34.5t83 12.5q23 0 46 -3.5t40 -8.5l-7 -83q-13 3 -27 5t-28 2q-48 0 -69 -21t-21 -59v-26h126v-94h-126v-509h-119z" />
    <glyph glyph-name="g" unicode="g" horiz-adv-x="532" 
d="M261 251q-40 0 -72 7q-28 -12 -28 -36q0 -29 43 -33l129 -12q97 -9 137.5 -45t40.5 -104q0 -86 -57 -135.5t-188 -49.5q-58 0 -99.5 11.5t-68.5 32t-39.5 49t-12.5 63.5q0 29 12.5 56.5t37.5 48.5q-20 13 -33.5 34t-13.5 51q0 29 17.5 55.5t52.5 43.5q-29 20 -46.5 54.5
t-17.5 87.5q0 42 11.5 75.5t36 57t63.5 36.5t94 13q36 0 71 -7t64 -26l95 36l27 -60l-64 -51q11 -33 11 -74q0 -88 -47.5 -133.5t-155.5 -45.5zM184 83q-18 -14 -26.5 -32t-8.5 -35q0 -38 27 -58t88 -20q41 0 68 5t42.5 15t21.5 23t6 30q0 26 -18 40.5t-73 19.5zM261 518
q-49 0 -68.5 -21.5t-19.5 -68.5q0 -54 24 -72t62 -18q52 0 71 21t19 69q0 51 -20.5 70.5t-67.5 19.5z" />
    <glyph glyph-name="h" unicode="h" horiz-adv-x="575" 
d="M397 0v403q0 100 -101 100q-36 0 -64.5 -15.5t-42.5 -38.5v-449h-119v786l119 7v-152l-2 -80l3 -2q31 30 68 42.5t75 12.5q88 0 135.5 -54.5t47.5 -156.5v-403h-119z" />
    <glyph glyph-name="i" unicode="i" horiz-adv-x="291" 
d="M84 0v599l122 6v-605h-122zM216 740q0 -57 -70 -57q-36 0 -54 12.5t-18 44.5q0 59 72 59q70 0 70 -59z" />
    <glyph glyph-name="j" unicode="j" horiz-adv-x="290" 
d="M206 -1q0 -44 -11.5 -74t-32 -48t-48 -26t-58.5 -8q-40 0 -72 13l6 87q9 -3 18.5 -5t18.5 -2q26 0 43 15.5t17 50.5v597l119 6v-606zM215 742q0 -59 -71 -59q-36 0 -53.5 13.5t-17.5 45.5q0 59 71 59t71 -59z" />
    <glyph glyph-name="k" unicode="k" horiz-adv-x="551" 
d="M189 375h76l133 228h133l-162 -275l168 -328h-134l-137 272h-77v-272h-119v786l119 7v-418z" />
    <glyph glyph-name="l" unicode="l" horiz-adv-x="278" 
d="M79 0v786l120 7v-793h-120z" />
    <glyph glyph-name="m" unicode="m" horiz-adv-x="852" 
d="M675 0v404q0 51 -25 74.5t-70 23.5q-38 0 -64.5 -22.5t-26.5 -69.5v-410h-119v410q0 50 -25 71t-65 21q-29 0 -55 -14t-40 -38v-450h-119v600l86 6l19 -57q27 30 64 47t78 17q105 0 145 -82h2q24 42 63.5 62t89.5 20q40 0 73.5 -13t57.5 -38.5t37 -65t13 -91.5v-405h-119
z" />
    <glyph glyph-name="n" unicode="n" horiz-adv-x="571" 
d="M393 0v402q0 54 -26 77.5t-76 23.5q-30 0 -60 -14t-46 -39v-450h-119v600l86 6l18 -54q30 29 70 45t85 16q87 0 137 -52.5t50 -157.5v-403h-119z" />
    <glyph glyph-name="o" unicode="o" horiz-adv-x="566" 
d="M528 299q0 -86 -14 -145.5t-44 -96.5t-76 -53.5t-110 -16.5q-63 0 -109.5 16.5t-77 53.5t-45 96.5t-14.5 145.5t14.5 145.5t45 97t77 54.5t109.5 17q64 0 110 -17t76 -54.5t44 -97t14 -145.5zM161 299q0 -62 7 -102.5t21.5 -64.5t38 -33.5t56.5 -9.5t56 9.5t37 33.5
t20.5 64.5t6.5 102.5t-6.5 102.5t-20.5 64.5t-37 33.5t-56 9.5t-56.5 -9.5t-38.5 -33.5t-21.5 -64.5t-6.5 -102.5z" />
    <glyph glyph-name="p" unicode="p" horiz-adv-x="572" 
d="M534 302q0 -81 -15 -140t-42.5 -97.5t-67 -56.5t-88.5 -18q-38 0 -72.5 11.5t-61.5 40.5l-2 -1l1 -81v-107h-120v747l84 5l22 -54q29 29 68.5 45t85.5 16q50 0 88.5 -15t65 -51t40.5 -95.5t14 -148.5zM411 305q0 60 -7 98t-21.5 60t-36.5 30.5t-51 8.5q-36 0 -64 -15
t-45 -42v-291q14 -25 40 -42.5t65 -17.5q27 0 49 8.5t38 31.5t24.5 64.5t8.5 106.5z" />
    <glyph glyph-name="q" unicode="q" horiz-adv-x="573" 
d="M387 -148v105l2 81l-2 1q-53 -48 -135 -48q-48 0 -87.5 17t-67.5 54t-43.5 95.5t-15.5 142.5q0 161 54 236.5t165 75.5q103 0 155 -66h3l14 56h77v-749zM387 447q-12 22 -40 37.5t-66 15.5q-33 0 -56 -8.5t-37 -31t-20.5 -61t-6.5 -99.5q0 -59 7 -98t22 -62t37.5 -33
t54.5 -10q45 0 72.5 19t32.5 42v289z" />
    <glyph glyph-name="r" unicode="r" horiz-adv-x="414" 
d="M66 0v599l95 5l10 -108h3q26 57 66.5 86.5t91.5 29.5q33 0 57 -8l-8 -124q-27 8 -56 8q-30 0 -55.5 -12t-44 -34.5t-29.5 -55t-11 -74.5v-312h-119z" />
    <glyph glyph-name="s" unicode="s" horiz-adv-x="451" 
d="M417 181q0 -89 -48.5 -141t-155.5 -52q-49 0 -92 10.5t-76 31.5l12 105q32 -21 74.5 -32t79.5 -11q51 0 73.5 22t22.5 57q0 29 -19.5 45.5t-49 29t-64 25t-64 32t-49 51t-19.5 82.5q0 78 50.5 127t152.5 49q82 0 150 -31l-9 -103q-34 14 -72 21.5t-69 7.5
q-43 0 -66 -17.5t-23 -47.5q0 -28 19.5 -43.5t48.5 -27t62.5 -23.5t62.5 -32t48.5 -51.5t19.5 -83.5z" />
    <glyph glyph-name="t" unicode="t" horiz-adv-x="363" 
d="M210 508v-345q0 -39 18.5 -55.5t53.5 -16.5q11 0 23.5 2t20.5 5l7 -92q-13 -7 -36.5 -11t-49.5 -4q-78 0 -117 43.5t-39 125.5v348h-67v95h72l21 140l93 10v-150h129v-95h-129z" />
    <glyph glyph-name="u" unicode="u" horiz-adv-x="564" 
d="M505 198q0 -209 -223 -209q-114 0 -168.5 53.5t-54.5 155.5v405h119v-403q0 -100 104 -100t104 100v403h119v-405z" />
    <glyph glyph-name="v" unicode="v" horiz-adv-x="587" 
d="M564 603l-200 -603h-142l-200 603h131l118 -415l21 -78h3l20 78l119 415h130z" />
    <glyph glyph-name="w" unicode="w" horiz-adv-x="807" 
d="M469 603l84 -420l15 -79h3l11 80l72 419h117l-126 -603h-147l-75 396l-13 81h-3l-14 -81l-76 -396h-146l-134 603h119l76 -419l13 -80h3l13 80l82 419h126z" />
    <glyph glyph-name="x" unicode="x" horiz-adv-x="559" 
d="M310 176l-33 74h-3l-33 -74l-82 -176h-131l168 305l-165 298h138l80 -167l33 -73h3l32 74l77 166h133l-160 -295l165 -308h-138z" />
    <glyph glyph-name="y" unicode="y" horiz-adv-x="588" 
d="M166 -67q29 0 51.5 13t37.5 51l3 9l-236 597h137l132 -401l24 -77h3l18 78l103 400h127l-191 -601q-14 -44 -33 -75t-42.5 -50t-52 -27.5t-61.5 -8.5q-50 0 -90 17l11 89q28 -14 59 -14z" />
    <glyph glyph-name="z" unicode="z" horiz-adv-x="489" 
d="M222 171l-44 -64l1 -3h269l-4 -104h-399v88l217 341l44 66l-1 2h-252l4 106h384v-88z" />
    <glyph glyph-name="braceleft" unicode="{" horiz-adv-x="356" 
d="M250 437q0 -71 -53 -104q53 -33 53 -103q0 -27 -2 -50l-4 -44.5l-4 -43.5t-2 -46q0 -35 20 -58t66 -23h28v-94h-22q-57 0 -95.5 11t-62 32t-33.5 50.5t-10 66.5q0 51 7.5 100t7.5 100q0 30 -17.5 51t-46.5 27v49q29 7 46.5 27.5t17.5 51.5q0 51 -7.5 99.5t-7.5 99.5
q0 37 10 66.5t33.5 50.5t62 32t95.5 11h22v-94h-28q-46 0 -66 -22.5t-20 -57.5q0 -25 2 -47l4 -43.5l4 -44.5t2 -50z" />
    <glyph glyph-name="bar" unicode="|" horiz-adv-x="270" 
d="M89 812h92v-986h-92v986z" />
    <glyph glyph-name="braceright" unicode="}" horiz-adv-x="356" 
d="M106 230q0 35 14 61.5t40 41.5q-26 16 -40 42.5t-14 61.5q0 27 2 50t4.5 44.5t4.5 43.5t2 47q0 35 -20.5 57.5t-66.5 22.5h-28v94h22q57 0 95.5 -11t62 -32t33.5 -50.5t10 -66.5q0 -51 -7.5 -99.5t-7.5 -99.5q0 -31 18 -51.5t47 -27.5v-49q-29 -6 -47 -27t-18 -51
q0 -51 7.5 -100t7.5 -100q0 -37 -10 -66.5t-33.5 -50.5t-62 -32t-95.5 -11h-22v94h28q46 0 66.5 23t20.5 58q0 24 -2 46t-4.5 43.5t-4.5 44.5t-2 50z" />
    <glyph glyph-name="asciitilde" unicode="~" horiz-adv-x="589" 
d="M72 614q10 165 128 165q27 0 52 -10t48 -22.5t45 -22.5t43 -10q26 0 40.5 14.5t19.5 37.5l69 1q-11 -165 -128 -165q-27 0 -51.5 10t-47.5 22.5t-44 22.5t-42 10q-26 0 -41.5 -14.5t-21.5 -37.5z" />
    <glyph glyph-name="Euro" unicode="&#x20ac;" horiz-adv-x="587" 
d="M433 277h-209q7 -50 22.5 -84.5t38.5 -55.5t54.5 -30t70.5 -9q35 0 68.5 9t62.5 25l10 -98q-68 -42 -169 -42q-128 0 -196.5 68.5t-85.5 216.5h-77l1 70h71v52h-71l-1 74h77q18 137 91.5 209.5t195.5 72.5q47 0 87.5 -8.5t69.5 -22.5l-23 -105q-25 11 -50.5 16t-57.5 5
q-82 0 -128 -40t-60 -127h254l-15 -74h-246v-52h229z" />
    <glyph glyph-name="quotesinglbase" unicode="&#x201a;" horiz-adv-x="227" 
d="M113 131q37 0 54.5 -21t17.5 -56q0 -17 -7 -42.5t-18.5 -52.5t-25.5 -53.5t-28 -46.5l-42 11l24 120q-17 8 -31 26t-14 41q0 32 16 53t54 21z" />
    <glyph glyph-name="florin" unicode="&#x192;" horiz-adv-x="385" 
d="M-17 -147l133 654h-56l19 95h56l9 47q13 62 59.5 101t126.5 39q23 0 44.5 -3.5t36.5 -8.5l-24 -84q-11 4 -24 6t-25 2q-34 0 -52 -14.5t-23 -41.5l-9 -43h120l-19 -95h-120l-134 -654h-118z" />
    <glyph glyph-name="quotedblbase" unicode="&#x201e;" horiz-adv-x="414" 
d="M113 131q37 0 54.5 -21t17.5 -56q0 -17 -7 -42.5t-18.5 -52.5t-25.5 -53.5t-28 -46.5l-42 11l24 120q-17 8 -31 26t-14 41q0 32 16 53t54 21zM300 131q37 0 54.5 -21t17.5 -56q0 -17 -7 -42.5t-18.5 -52.5t-25.5 -53.5t-28 -46.5l-42 11l24 120q-17 8 -31 26t-14 41
q0 32 16 53t54 21z" />
    <glyph glyph-name="ellipsis" unicode="&#x2026;" horiz-adv-x="649" 
d="M601 61q0 -33 -17.5 -52.5t-55.5 -19.5t-55 17t-17 55q0 35 17 53.5t55 18.5t55.5 -18.5t17.5 -53.5zM401 61q0 -33 -17.5 -52.5t-55.5 -19.5t-55 17t-17 55q0 35 17 53.5t55 18.5t55.5 -18.5t17.5 -53.5zM194 61q0 -33 -17.5 -52.5t-55.5 -19.5t-55 17t-17 55
q0 35 17 53.5t55 18.5t55.5 -18.5t17.5 -53.5z" />
    <glyph glyph-name="dagger" unicode="&#x2020;" horiz-adv-x="465" 
d="M181 600l-11 187h121l-9 -187l150 9v-117l-150 9l9 -641h-121l11 641l-148 -9v117z" />
    <glyph glyph-name="daggerdbl" unicode="&#x2021;" horiz-adv-x="465" 
d="M432 41l-151 10l10 -192h-121l11 192l-148 -10v117l149 -8l-1 351l-148 -9v117l148 -9l-11 187h121l-9 -187l150 9v-117l-150 9v-351l150 8v-117z" />
    <glyph glyph-name="circumflex" unicode="&#x2c6;" 
d="M240 803l96 -142h-91l-55 89l-56 -89h-90l94 142h102z" />
    <glyph glyph-name="perthousand" unicode="&#x2030;" horiz-adv-x="977" 
d="M314 588q0 -90 -35.5 -131.5t-104.5 -41.5q-72 0 -105.5 42t-33.5 131q0 92 33 132.5t107 40.5q68 0 103.5 -39t35.5 -134zM234 589q0 56 -15 75t-44 19t-44 -18.5t-15 -75.5q0 -56 15 -75t44 -19t44 18.5t15 75.5zM555 663l-380 -636l-71 56l380 636zM636 164
q0 -91 -35.5 -132t-104.5 -41q-72 0 -105.5 42t-33.5 131q0 92 32.5 133.5t106.5 41.5q68 0 104 -40t36 -135zM555 164q0 55 -15 73.5t-44 18.5t-43.5 -18t-14.5 -74t14.5 -74t43.5 -18q30 0 44.5 18t14.5 74zM942 164q0 -91 -36 -132t-105 -41q-72 0 -105.5 42t-33.5 131
q0 92 33 133.5t107 41.5q68 0 104 -40t36 -135zM861 164q0 55 -15 73.5t-44 18.5t-44 -18t-15 -74t14.5 -74t43.5 -18q30 0 45 18t15 74z" />
    <glyph glyph-name="Scaron" unicode="&#x160;" horiz-adv-x="520" 
d="M490 217q0 -109 -64 -169.5t-182 -60.5q-59 0 -110.5 14t-93.5 39l18 117q42 -25 87 -38.5t96 -13.5q64 0 94.5 26.5t30.5 77.5q0 36 -24 58t-59.5 39t-77.5 33.5t-77.5 42t-59.5 64t-24 99.5q0 46 14 85.5t43.5 69t74 46t106.5 16.5q51 0 98.5 -10t85.5 -27l-16 -114
q-41 14 -80.5 22.5t-79.5 8.5q-35 0 -58 -7t-37.5 -19.5t-20.5 -29t-6 -35.5q0 -35 24 -56t59.5 -37t77.5 -32.5t77.5 -42t59.5 -65t24 -101.5zM220 794l-101 115h108l57 -65l57 65h107l-102 -115h-126z" />
    <glyph glyph-name="guilsinglleft" unicode="&#x2039;" horiz-adv-x="374" 
d="M154 320l166 -105v-97l-285 198v9l285 198v-97z" />
    <glyph glyph-name="OE" unicode="&#x152;" horiz-adv-x="975" 
d="M502 0v70l-3 1q-29 -44 -76 -64t-110 -20q-67 0 -117 21.5t-83 68t-49.5 120t-16.5 178.5t16 178.5t49 120t83.5 67.5t119.5 21q60 0 107 -17.5t78 -56.5h2v62h421l2 -120h-306v-187h259v-110h-259v-214h321l-3 -119h-435zM493 375q0 81 -8 132.5t-26.5 81t-48 40.5
t-72.5 11t-72.5 -11t-48 -40.5t-27 -81t-8.5 -132.5t8.5 -133t27 -81.5t48 -41t72.5 -11.5t72.5 11.5t48 41.5t26.5 81.5t8 132.5z" />
    <glyph glyph-name="quoteleft" unicode="&#x2018;" horiz-adv-x="227" 
d="M114 549q-37 0 -54.5 21t-17.5 56q0 17 7 42.5t18.5 52.5t25.5 53.5t28 46.5l42 -11l-24 -120q17 -8 31 -26t14 -41q0 -32 -16 -53t-54 -21z" />
    <glyph glyph-name="quoteright" unicode="&#x2019;" horiz-adv-x="227" 
d="M113 786q37 0 54.5 -21t17.5 -56q0 -17 -7 -42.5t-18.5 -52.5t-25.5 -53.5t-28 -46.5l-42 11l24 120q-17 8 -31 26t-14 41q0 32 16 53t54 21z" />
    <glyph glyph-name="quotedblleft" unicode="&#x201c;" horiz-adv-x="414" 
d="M301 549q-37 0 -54.5 21t-17.5 56q0 17 7 42.5t18.5 52.5t25.5 53.5t28 46.5l42 -11l-24 -120q17 -8 31 -26t14 -41q0 -32 -16 -53t-54 -21zM114 549q-37 0 -54.5 21t-17.5 56q0 17 7 42.5t18.5 52.5t25.5 53.5t28 46.5l42 -11l-24 -120q17 -8 31 -26t14 -41
q0 -32 -16 -53t-54 -21z" />
    <glyph glyph-name="quotedblright" unicode="&#x201d;" horiz-adv-x="414" 
d="M113 785q37 0 54.5 -21t17.5 -56q0 -17 -7 -42.5t-18.5 -52.5t-25.5 -53.5t-28 -46.5l-42 11l24 120q-17 8 -31 26t-14 41q0 32 16 53t54 21zM300 785q37 0 54.5 -21t17.5 -56q0 -17 -7 -42.5t-18.5 -52.5t-25.5 -53.5t-28 -46.5l-42 11l24 120q-17 8 -31 26t-14 41
q0 32 16 53t54 21z" />
    <glyph glyph-name="bullet" unicode="&#x2022;" horiz-adv-x="388" 
d="M51 324q0 144 141 144t141 -144q0 -146 -141 -146t-141 146z" />
    <glyph glyph-name="endash" unicode="&#x2013;" horiz-adv-x="483" 
d="M427 389v-92h-372v92h372z" />
    <glyph glyph-name="emdash" unicode="&#x2014;" horiz-adv-x="654" 
d="M599 389v-92h-544v92h544z" />
    <glyph glyph-name="tilde" unicode="&#x2dc;" 
d="M45 678q3 54 26.5 88.5t62.5 34.5q22 0 38.5 -9t30.5 -19.5l26.5 -19.5t27.5 -9q25 0 35 46l56 -1q-4 -56 -28.5 -89t-62.5 -33q-22 0 -38 9t-30 19.5l-26.5 19.5t-26.5 9t-23 -13t-13 -34z" />
    <glyph glyph-name="trademark" unicode="&#x2122;" horiz-adv-x="634" 
d="M534 489l-1 112l2 81l-3 1l-26 -77l-43 -117h-51l-44 116l-27 77l-2 -1l1 -81v-111h-63v277h91l43 -113l27 -76h3l26 76l42 113h88v-277h-63zM171 699v-210h-73v210h-76v67h223v-67h-74z" />
    <glyph glyph-name="scaron" unicode="&#x161;" horiz-adv-x="451" 
d="M417 181q0 -89 -48.5 -141t-155.5 -52q-49 0 -92 10.5t-76 31.5l12 105q32 -21 74.5 -32t79.5 -11q51 0 73.5 22t22.5 57q0 29 -19.5 45.5t-49 29t-64 25t-64 32t-49 51t-19.5 82.5q0 78 50.5 127t152.5 49q82 0 150 -31l-9 -103q-34 14 -72 21.5t-69 7.5
q-43 0 -66 -17.5t-23 -47.5q0 -28 19.5 -43.5t48.5 -27t62.5 -23.5t62.5 -32t48.5 -51.5t19.5 -83.5zM183 661l-93 142h90l55 -94l55 94h91l-95 -142h-103z" />
    <glyph glyph-name="guilsinglright" unicode="&#x203a;" horiz-adv-x="374" 
d="M54 215l165 105l-165 106v97l285 -198v-9l-285 -198v97z" />
    <glyph glyph-name="oe" unicode="&#x153;" horiz-adv-x="903" 
d="M678 -11q-78 0 -127 23t-76 74h-3q-26 -53 -73 -76t-120 -23q-60 0 -104.5 16.5t-73.5 53.5t-43.5 96.5t-14.5 145.5t14.5 145.5t44 97t74 54.5t104.5 17q72 0 118 -22t72 -67q26 43 69 65.5t108 22.5q50 0 90.5 -16t69 -49.5t44 -86t15.5 -125.5q0 -15 -0.5 -31
t-2.5 -30h-331q2 -50 12 -84t29 -54.5t48 -29t69 -8.5q76 0 146 34l13 -104q-34 -18 -78 -28.5t-93 -10.5zM166 299q0 -62 6.5 -102.5t21.5 -64.5t38.5 -33.5t56.5 -9.5t56 9.5t37 33.5t20.5 64.5t6.5 102.5t-6.5 102.5t-20.5 64.5t-37.5 33.5t-56.5 9.5t-56 -9.5t-38 -33.5
t-21.5 -64.5t-6.5 -102.5zM756 358q0 42 -8.5 70.5t-23 46.5t-35 25.5t-45.5 7.5q-58 0 -84.5 -34.5t-30.5 -115.5h227z" />
    <glyph glyph-name="Ydieresis" unicode="&#x178;" horiz-adv-x="620" 
d="M157 750l127 -310l29 -75h3l28 75l123 310h140l-229 -507v-243h-132v243l-234 507h145zM276 849q0 -53 -53 -53q-26 0 -39.5 12t-13.5 41q0 54 53 54t53 -54zM457 849q0 -53 -54 -53q-26 0 -39.5 12t-13.5 41q0 54 53 54q54 0 54 -54z" />
    <glyph glyph-name="uni00A0" unicode="&#xa0;" horiz-adv-x="258" 
 />
    <glyph glyph-name="exclamdown" unicode="&#xa1;" horiz-adv-x="276" 
d="M186 456l15 -588h-125l16 588h94zM66 601q0 30 17 47.5t54 17.5q36 0 53.5 -15t17.5 -50q0 -32 -17.5 -49.5t-53.5 -17.5q-37 0 -54 17.5t-17 49.5z" />
    <glyph glyph-name="cent" unicode="&#xa2;" horiz-adv-x="589" 
d="M459 479q-22 9 -47.5 14.5t-51.5 5.5q-41 0 -69 -10t-45.5 -33.5t-25.5 -61t-8 -91.5q0 -114 37 -161t108 -47q59 0 105 26l9 -98q-42 -28 -109 -34l-7 -122h-92l7 127q-91 17 -136 91.5t-45 217.5q0 141 48.5 217.5t154.5 88.5l8 119h92l-9 -120q46 -6 83 -22z" />
    <glyph glyph-name="sterling" unicode="&#xa3;" horiz-adv-x="578" 
d="M53 423h50q-10 31 -17.5 61t-7.5 65q0 43 13.5 81.5t45 67.5t81.5 46.5t124 17.5q54 0 96 -9.5t74 -23.5l-16 -115q-27 11 -64 19t-76 8q-79 0 -112.5 -30.5t-33.5 -78.5q0 -29 5.5 -55t13.5 -54h231v-101h-208q2 -15 3.5 -30.5t1.5 -32.5q0 -51 -18 -88t-51 -58l2 -3
q42 10 86.5 13.5t94.5 3.5q48 0 90.5 -3t85.5 -8l-6 -123q-60 7 -114.5 10.5t-114.5 3.5q-33 0 -64.5 -0.5t-63 -2t-65 -4l-72.5 -5.5l-6 119q22 6 39 19t29 31.5t18.5 41.5t6.5 47q0 37 -6 69h-70z" />
    <glyph glyph-name="currency" unicode="&#xa4;" horiz-adv-x="546" 
d="M98 357q0 48 23 88l-64 67l64 70l67 -69q39 22 85 22q45 0 84 -22l68 69l64 -70l-65 -67q23 -40 23 -88q0 -45 -20 -82l62 -64l-65 -70l-62 63q-41 -25 -89 -25q-50 0 -91 25l-62 -63l-64 70l61 63q-19 40 -19 83zM177 359q0 -19 7.5 -35.5t20 -29t30 -19.5t37.5 -7
t37.5 7t30 19.5t20 29t7.5 35.5q0 38 -27.5 64.5t-67.5 26.5t-67.5 -26.5t-27.5 -64.5z" />
    <glyph glyph-name="yen" unicode="&#xa5;" horiz-adv-x="655" 
d="M230 349l-187 401h146l115 -331l25 -77h3l24 77l114 331h142l-181 -401h96v-72h-126v-48h127v-72h-127v-157h-140v157h-125v72h125v48h-125v72h94z" />
    <glyph glyph-name="brokenbar" unicode="&#xa6;" horiz-adv-x="270" 
d="M89 812h92v-434h-92v434zM89 273h92v-433h-92v433z" />
    <glyph glyph-name="section" unicode="&#xa7;" horiz-adv-x="515" 
d="M47 342q0 43 20.5 83t63.5 66q-31 25 -50.5 54.5t-19.5 69.5q0 82 55 126t158 44q45 0 93.5 -10.5t82.5 -30.5l-10 -95q-78 37 -158 37q-48 0 -73 -17.5t-25 -48.5q0 -25 22 -43.5t55.5 -37l72 -38.5t72 -47t55.5 -64t22 -88q0 -44 -21 -84t-64 -66q30 -25 50 -55t20 -69
q0 -81 -55 -125t-158 -44q-45 0 -93 10.5t-82 30.5l10 95q39 -20 78 -28.5t80 -8.5q48 0 73 17t25 49q0 25 -22 44t-55.5 37l-72 38t-72 47t-55.5 63.5t-22 88.5zM368 290q0 22 -11.5 40.5t-30 35t-43 31.5t-51.5 30l-11 6q-30 -13 -44.5 -33t-14.5 -46q0 -23 12.5 -42.5
t33 -36.5t46.5 -32.5l54 -31.5q30 13 45 33t15 46z" />
    <glyph glyph-name="dieresis" unicode="&#xa8;" 
d="M163 742q0 -56 -54 -56q-27 0 -40.5 13t-13.5 43q0 57 54 57t54 -57zM325 742q0 -56 -54 -56q-27 0 -40.5 13t-13.5 43q0 57 54 57t54 -57z" />
    <glyph glyph-name="copyright" unicode="&#xa9;" horiz-adv-x="879" 
d="M47 379q0 81 31 152t84 124.5t125 84t153 30.5t152 -30.5t124.5 -84t84 -124.5t30.5 -152t-30.5 -152.5t-84 -125t-124.5 -84t-152 -30.5t-153 30.5t-125 84t-84 125t-31 152.5zM111 378q0 -66 25.5 -125t69.5 -103.5t104 -71t129 -26.5t129 26t104.5 70t70.5 103.5
t26 126.5q0 66 -26 124.5t-70.5 102.5t-104.5 69.5t-129 25.5t-129 -25.5t-104 -69.5t-69.5 -102.5t-25.5 -124.5zM602 584q-3 -23 -5 -45.5t-5 -45.5q-23 13 -55 20.5t-61 7.5q-79 0 -121 -40t-42 -103q0 -66 43.5 -106t122.5 -40q35 0 67 10t55 23l12 -88
q-28 -23 -72.5 -41.5t-94.5 -18.5q-56 0 -103 20t-81 55t-53 82.5t-19 103.5q0 51 17.5 97t50.5 81t80.5 56t107.5 21q51 0 90.5 -14.5t65.5 -34.5z" />
    <glyph glyph-name="ordfeminine" unicode="&#xaa;" horiz-adv-x="399" 
d="M267 397l-3 1q-35 -50 -103 -50q-57 0 -91.5 36t-34.5 114q0 66 38 104.5t106 38.5q40 0 74 -13v31q0 37 -18 52t-61 15q-29 0 -53.5 -5t-51.5 -18l-8 89q30 13 63.5 20.5t69.5 7.5q88 0 124 -41.5t36 -135.5v-289h-78zM253 554q-7 4 -20.5 7t-33.5 3q-67 0 -67 -64
q0 -36 15.5 -50t41.5 -14t45 15.5t19 38.5v64z" />
    <glyph glyph-name="guillemotleft" unicode="&#xab;" horiz-adv-x="595" 
d="M361 320l166 -105v-97l-285 198v9l285 198v-97zM142 320l166 -105v-97l-285 198v9l285 198v-97z" />
    <glyph glyph-name="logicalnot" unicode="&#xac;" horiz-adv-x="589" 
d="M93 286v106h404v-249h-98v143h-306z" />
    <glyph glyph-name="uni00AD" unicode="&#xad;" horiz-adv-x="364" 
d="M309 389v-92h-254v92h254z" />
    <glyph glyph-name="registered" unicode="&#xae;" horiz-adv-x="424" 
d="M34 651q0 37 14 70t38.5 58t57 39t69.5 14t69.5 -14t56.5 -39t38 -58t14 -70t-14 -70t-38 -57.5t-56.5 -39t-69.5 -14.5t-69.5 14.5t-57 39t-38.5 57.5t-14 70zM69 651q0 -30 11.5 -56t31 -45.5t45.5 -31t56 -11.5t56 11.5t45.5 31t30.5 45.5t11 56t-11 56t-30.5 45.5
t-45.5 31t-56 11.5t-56 -11.5t-45.5 -31t-31 -45.5t-11.5 -56zM300 690q0 -17 -8.5 -32t-25.5 -22l39 -81h-54l-32 74h-33v-74h-51v199h85q44 0 62 -17.5t18 -46.5zM251 687q0 12 -6.5 18.5t-23.5 6.5h-35v-49h38q14 0 20.5 6.5t6.5 17.5z" />
    <glyph glyph-name="macron" unicode="&#xaf;" 
d="M332 697h-282v77h282v-77z" />
    <glyph glyph-name="degree" unicode="&#xb0;" horiz-adv-x="334" 
d="M36 684q0 28 10 52t27.5 42t41.5 28.5t52 10.5q27 0 51 -10.5t41.5 -28.5t27.5 -42t10 -52q0 -27 -10 -51.5t-27.5 -42.5t-41.5 -28.5t-51 -10.5t-51 10.5t-42 28.5t-28 42.5t-10 51.5zM92 684q0 -31 21.5 -52t53.5 -21t53.5 20.5t21.5 52.5t-21.5 53t-53.5 21
q-34 0 -54.5 -21.5t-20.5 -52.5z" />
    <glyph glyph-name="plusminus" unicode="&#xb1;" horiz-adv-x="589" 
d="M346 332v-147h-106v147h-156v106h156v153h106v-153h159v-106h-159zM84 56v93h419v-93h-419z" />
    <glyph glyph-name="twosuperior" unicode="&#xb2;" horiz-adv-x="335" 
d="M304 774q0 -27 -11.5 -52.5t-32.5 -50t-50 -50t-63 -52.5v-3h157l-1 -75h-266v57l68 65.5t56 57t38 50t14 45.5q0 21 -14 34.5t-47 13.5q-27 0 -50.5 -9.5t-46.5 -25.5l-21 71q26 18 59 29t75 11q69 0 102.5 -31.5t33.5 -84.5z" />
    <glyph glyph-name="threesuperior" unicode="&#xb3;" horiz-adv-x="335" 
d="M307 609q0 -57 -36.5 -90t-117.5 -33q-38 0 -68.5 8t-53.5 22l18 68q23 -13 48.5 -20t54.5 -7q36 0 53.5 15t17.5 41q0 13 -4.5 22.5t-16.5 16t-32.5 10t-52.5 3.5v61q60 0 80.5 13t20.5 37q0 41 -64 41q-59 0 -103 -34l-20 66q23 18 56.5 29.5t71.5 11.5q66 0 103 -28
t37 -80q0 -31 -15 -52t-42 -32v-2q32 -11 48.5 -31.5t16.5 -55.5z" />
    <glyph glyph-name="acute" unicode="&#xb4;" 
d="M339 803l-108 -142h-90l60 142h138z" />
    <glyph glyph-name="uni03BC" unicode="&#x3bc;" horiz-adv-x="570" 
d="M296 -10q-41 0 -73.5 17t-52.5 52l-2 -1q2 -53 5 -104t8 -99l-115 -9v757h119v-405q0 -46 29.5 -72t77.5 -26q45 0 73 22t28 67v414h119v-600l-84 -8l-15 46h-3q-18 -24 -47.5 -37.5t-66.5 -13.5z" />
    <glyph glyph-name="paragraph" unicode="&#xb6;" horiz-adv-x="630" 
d="M169 -152v642q-62 2 -102 36t-40 99q0 54 38 89.5t109 35.5h418l-4 -99h-70v-803h-105v803h-140v-803h-104z" />
    <glyph glyph-name="periodcentered" unicode="&#xb7;" horiz-adv-x="268" 
d="M207 345q0 -33 -17.5 -52.5t-55.5 -19.5t-55 17t-17 55q0 35 17 53.5t55 18.5t55.5 -18.5t17.5 -53.5z" />
    <glyph glyph-name="cedilla" unicode="&#xb8;" 
d="M173 10l79 1l-33 -198h-110z" />
    <glyph glyph-name="onesuperior" unicode="&#xb9;" horiz-adv-x="256" 
d="M203 491h-88v209l3 79l-3 1l-73 -44l-8 72l115 78h54v-395z" />
    <glyph glyph-name="ordmasculine" unicode="&#xba;" horiz-adv-x="432" 
d="M395 584q0 -66 -10.5 -110.5t-32 -72.5t-55.5 -40t-80 -12q-47 0 -80.5 12t-56 40t-33 72.5t-10.5 110.5q0 65 11 110t33 73t56 40.5t80 12.5t80 -12.5t55.5 -40.5t32 -73t10.5 -110zM142 584q0 -45 4 -73.5t13 -45t23.5 -22.5t34.5 -6t34 6t23 22.5t13 45t4 73.5t-4 73
t-13 44t-23 22t-34 6q-21 0 -35 -6t-23 -22t-13 -44t-4 -73z" />
    <glyph glyph-name="guillemotright" unicode="&#xbb;" horiz-adv-x="595" 
d="M278 215l165 105l-165 106v97l285 -198v-9l-285 -198v97zM58 215l165 105l-165 106v97l285 -198v-9l-285 -198v97z" />
    <glyph glyph-name="onequarter" unicode="&#xbc;" horiz-adv-x="812" 
d="M267 356h-88v209l3 79l-3 1l-73 -44l-8 72l115 78h54v-395zM720 76v-76h-81v76h-184l-7 52l167 266h105v-247h40l-2 -71h-38zM644 234l5 80h-3l-61 -99l-43 -65l1 -3h99zM687 750l-466 -750h-86l465 750h87z" />
    <glyph glyph-name="onehalf" unicode="&#xbd;" horiz-adv-x="812" 
d="M672 750l-466 -750h-86l465 750h87zM757 283q0 -27 -11.5 -52.5t-32.5 -50t-50 -50t-63 -52.5v-3h157l-1 -75h-266v57l68 65.5t56 57t38 50t14 45.5q0 21 -14 34.5t-47 13.5q-27 0 -50.5 -9.5t-46.5 -25.5l-21 71q26 18 59 29t75 11q69 0 102.5 -31.5t33.5 -84.5z
M265 356h-88v209l3 79l-3 1l-73 -44l-8 72l115 78h54v-395z" />
    <glyph glyph-name="threequarters" unicode="&#xbe;" horiz-adv-x="812" 
d="M695 76v-76h-81v76h-184l-7 52l167 266h105v-247h40l-2 -71h-38zM619 234l5 80h-3l-61 -99l-43 -65l1 -3h99zM683 750l-466 -750h-86l465 750h87zM331 474q0 -57 -36.5 -90t-117.5 -33q-38 0 -68.5 8t-53.5 22l18 68q23 -13 48.5 -20t54.5 -7q36 0 53.5 15t17.5 41
q0 12 -4.5 22t-16.5 16.5t-32.5 10t-52.5 3.5v61q60 0 80.5 13t20.5 37q0 41 -64 41q-59 0 -103 -34l-20 66q23 18 56.5 29.5t71.5 11.5q66 0 103 -28t37 -80q0 -31 -15 -52t-42 -32v-2q32 -11 48.5 -31.5t16.5 -55.5z" />
    <glyph glyph-name="questiondown" unicode="&#xbf;" horiz-adv-x="443" 
d="M32 79q0 83 42.5 141.5t115.5 103.5l6 129h92l7 -172q-32 -22 -58.5 -42.5t-45 -42t-28.5 -45t-10 -51.5q0 -43 26.5 -63.5t72.5 -20.5q45 0 80 15.5t64 41.5l42 -99q-33 -32 -86.5 -53t-116.5 -21q-103 0 -153 47t-50 132zM171 606q0 30 17 47.5t54 17.5q36 0 53.5 -15
t17.5 -50q0 -67 -71 -67t-71 67z" />
    <glyph glyph-name="Agrave" unicode="&#xc0;" horiz-adv-x="654" 
d="M455 163h-264l-44 -163h-136l236 750h157l239 -750h-144zM304 572l-82 -295h203l-79 295l-19 79h-3zM292 795l-117 115h144l70 -115h-97z" />
    <glyph glyph-name="Aacute" unicode="&#xc1;" horiz-adv-x="654" 
d="M455 163h-264l-44 -163h-136l236 750h157l239 -750h-144zM304 572l-82 -295h203l-79 295l-19 79h-3zM481 909l-124 -115h-97l66 115h155z" />
    <glyph glyph-name="Acircumflex" unicode="&#xc2;" horiz-adv-x="654" 
d="M455 163h-264l-44 -163h-136l236 750h157l239 -750h-144zM304 572l-82 -295h203l-79 295l-19 79h-3zM387 909l103 -115h-108l-57 63l-57 -63h-106l99 115h126z" />
    <glyph glyph-name="Atilde" unicode="&#xc3;" horiz-adv-x="654" 
d="M455 163h-264l-44 -163h-136l236 750h157l239 -750h-144zM304 572l-82 -295h203l-79 295l-19 79h-3zM175 799q3 49 26 80t64 31q22 0 40 -7.5t33 -17t28.5 -17t25.5 -7.5q26 0 33 37l54 -1q-3 -50 -27.5 -80t-63.5 -30q-22 0 -39.5 7.5t-32 17l-27 17t-24.5 7.5
q-13 0 -21.5 -10t-11.5 -27h-57z" />
    <glyph glyph-name="Adieresis" unicode="&#xc4;" horiz-adv-x="654" 
d="M455 163h-264l-44 -163h-136l236 750h157l239 -750h-144zM304 572l-82 -295h203l-79 295l-19 79h-3zM288 849q0 -53 -53 -53q-26 0 -39.5 12t-13.5 41q0 54 53 54t53 -54zM469 849q0 -53 -54 -53q-26 0 -39.5 12t-13.5 41q0 54 53 54q54 0 54 -54z" />
    <glyph glyph-name="Aring" unicode="&#xc5;" horiz-adv-x="654" 
d="M213 801q0 40 25 64.5t85 24.5t86 -24.5t26 -64.5q0 -45 -26 -67l234 -734h-144l-44 163h-264l-44 -163h-136l230 732q-28 21 -28 69zM304 572l-82 -295h203l-79 295l-19 79h-3zM278 797q0 -17 10 -25.5t38 -8.5q25 0 35.5 8.5t10.5 25.5t-10 26.5t-36 9.5
q-28 0 -38 -9.5t-10 -26.5z" />
    <glyph glyph-name="AE" unicode="&#xc6;" horiz-adv-x="954" 
d="M593 630l13 -187h250v-110h-243l15 -214h290l-3 -119h-408l-11 163h-248l-71 -163h-150l363 750h515l3 -120h-315zM432 586l-135 -310h192l-20 303l-3 81l-3 1z" />
    <glyph glyph-name="Ccedilla" unicode="&#xc7;" horiz-adv-x="544" 
d="M299 -10q-129 13 -190.5 107t-61.5 284q0 195 74 288.5t233 93.5q41 0 84.5 -9t71.5 -22l-13 -117q-26 11 -61.5 18.5t-73.5 7.5q-49 0 -83 -12.5t-55.5 -42.5t-31.5 -80t-10 -125q0 -80 10 -133t32 -84.5t57 -44.5t84 -13q39 0 72 8t62 22l14 -111q-26 -14 -60.5 -23
t-71.5 -13l-29 -176h-110z" />
    <glyph glyph-name="Egrave" unicode="&#xc8;" horiz-adv-x="560" 
d="M525 119l-3 -119h-447v750h433l2 -120h-307v-187h261v-110h-261v-214h322zM266 795l-117 115h144l70 -115h-97z" />
    <glyph glyph-name="Eacute" unicode="&#xc9;" horiz-adv-x="560" 
d="M525 119l-3 -119h-447v750h433l2 -120h-307v-187h261v-110h-261v-214h322zM455 909l-124 -115h-97l66 115h155z" />
    <glyph glyph-name="Ecircumflex" unicode="&#xca;" horiz-adv-x="560" 
d="M525 119l-3 -119h-447v750h433l2 -120h-307v-187h261v-110h-261v-214h322zM361 909l103 -115h-108l-57 63l-57 -63h-106l99 115h126z" />
    <glyph glyph-name="Edieresis" unicode="&#xcb;" horiz-adv-x="560" 
d="M525 119l-3 -119h-447v750h433l2 -120h-307v-187h261v-110h-261v-214h322zM262 849q0 -53 -53 -53q-26 0 -39.5 12t-13.5 41q0 54 53 54t53 -54zM443 849q0 -53 -54 -53q-26 0 -39.5 12t-13.5 41q0 54 53 54q54 0 54 -54z" />
    <glyph glyph-name="Igrave" unicode="&#xcc;" horiz-adv-x="303" 
d="M86 750h131v-750h-131v750zM118 795l-117 115h144l70 -115h-97z" />
    <glyph glyph-name="Iacute" unicode="&#xcd;" horiz-adv-x="303" 
d="M86 750h131v-750h-131v750zM307 909l-124 -115h-97l66 115h155z" />
    <glyph glyph-name="Icircumflex" unicode="&#xce;" horiz-adv-x="303" 
d="M86 750h131v-750h-131v750zM213 909l103 -115h-108l-57 63l-57 -63h-106l99 115h126z" />
    <glyph glyph-name="Idieresis" unicode="&#xcf;" horiz-adv-x="303" 
d="M86 750h131v-750h-131v750zM114 849q0 -53 -53 -53q-26 0 -39.5 12t-13.5 41q0 54 53 54t53 -54zM295 849q0 -53 -54 -53q-26 0 -39.5 12t-13.5 41q0 54 53 54q54 0 54 -54z" />
    <glyph glyph-name="Eth" unicode="&#xd0;" horiz-adv-x="676" 
d="M629 379q0 -104 -18.5 -176t-56 -117t-94 -65.5t-132.5 -20.5h-244v350h-59v82h59v318h241q80 0 137.5 -20.5t94.5 -64.5t54.5 -115t17.5 -171zM494 380q0 76 -9.5 124.5t-29.5 76t-52 37.5t-78 10h-112v-196h86v-82h-86v-230h113q44 0 75.5 10t52 38.5t30.5 79t10 132.5
z" />
    <glyph glyph-name="Ntilde" unicode="&#xd1;" horiz-adv-x="682" 
d="M514 0l-283 455l-41 70l-2 -1l1 -81v-443h-114v750h113l264 -436l41 -69l2 1l-2 80v424h114v-750h-93zM195 799q3 49 26 80t64 31q22 0 40 -7.5t33 -17t28.5 -17t25.5 -7.5q26 0 33 37l54 -1q-3 -50 -27.5 -80t-63.5 -30q-22 0 -39.5 7.5t-32 17l-27 17t-24.5 7.5
q-13 0 -21.5 -10t-11.5 -27h-57z" />
    <glyph glyph-name="Ograve" unicode="&#xd2;" horiz-adv-x="676" 
d="M629 375q0 -107 -16 -180.5t-51.5 -120t-90.5 -67t-133 -20.5q-77 0 -132 21.5t-90 68t-52 120t-17 178.5t16.5 178.5t51.5 120t90 67.5t133 21t133 -21t90 -67.5t51.5 -120t16.5 -178.5zM494 375q0 81 -8 132.5t-26.5 81t-48.5 40.5t-73 11t-72.5 -11t-48 -40.5t-27 -81
t-8.5 -132.5t8.5 -132.5t27 -81.5t48 -41t72.5 -11t73 11.5t48.5 41t26.5 81t8 132.5zM319 795l-117 115h144l70 -115h-97z" />
    <glyph glyph-name="Oacute" unicode="&#xd3;" horiz-adv-x="676" 
d="M629 375q0 -107 -16 -180.5t-51.5 -120t-90.5 -67t-133 -20.5q-77 0 -132 21.5t-90 68t-52 120t-17 178.5t16.5 178.5t51.5 120t90 67.5t133 21t133 -21t90 -67.5t51.5 -120t16.5 -178.5zM494 375q0 81 -8 132.5t-26.5 81t-48.5 40.5t-73 11t-72.5 -11t-48 -40.5t-27 -81
t-8.5 -132.5t8.5 -132.5t27 -81.5t48 -41t72.5 -11t73 11.5t48.5 41t26.5 81t8 132.5zM494 909l-124 -115h-97l66 115h155z" />
    <glyph glyph-name="Ocircumflex" unicode="&#xd4;" horiz-adv-x="676" 
d="M629 375q0 -107 -16 -180.5t-51.5 -120t-90.5 -67t-133 -20.5q-77 0 -132 21.5t-90 68t-52 120t-17 178.5t16.5 178.5t51.5 120t90 67.5t133 21t133 -21t90 -67.5t51.5 -120t16.5 -178.5zM494 375q0 81 -8 132.5t-26.5 81t-48.5 40.5t-73 11t-72.5 -11t-48 -40.5t-27 -81
t-8.5 -132.5t8.5 -132.5t27 -81.5t48 -41t72.5 -11t73 11.5t48.5 41t26.5 81t8 132.5zM401 909l103 -115h-108l-57 63l-57 -63h-106l99 115h126z" />
    <glyph glyph-name="Otilde" unicode="&#xd5;" horiz-adv-x="676" 
d="M629 375q0 -107 -16 -180.5t-51.5 -120t-90.5 -67t-133 -20.5q-77 0 -132 21.5t-90 68t-52 120t-17 178.5t16.5 178.5t51.5 120t90 67.5t133 21t133 -21t90 -67.5t51.5 -120t16.5 -178.5zM494 375q0 81 -8 132.5t-26.5 81t-48.5 40.5t-73 11t-72.5 -11t-48 -40.5t-27 -81
t-8.5 -132.5t8.5 -132.5t27 -81.5t48 -41t72.5 -11t73 11.5t48.5 41t26.5 81t8 132.5zM189 799q3 49 26 80t64 31q22 0 40 -7.5t33 -17t28.5 -17t25.5 -7.5q26 0 33 37l54 -1q-3 -50 -27.5 -80t-63.5 -30q-22 0 -39.5 7.5t-32 17l-27 17t-24.5 7.5q-13 0 -21.5 -10
t-11.5 -27h-57z" />
    <glyph glyph-name="Odieresis" unicode="&#xd6;" horiz-adv-x="676" 
d="M629 375q0 -107 -16 -180.5t-51.5 -120t-90.5 -67t-133 -20.5q-77 0 -132 21.5t-90 68t-52 120t-17 178.5t16.5 178.5t51.5 120t90 67.5t133 21t133 -21t90 -67.5t51.5 -120t16.5 -178.5zM494 375q0 81 -8 132.5t-26.5 81t-48.5 40.5t-73 11t-72.5 -11t-48 -40.5t-27 -81
t-8.5 -132.5t8.5 -132.5t27 -81.5t48 -41t72.5 -11t73 11.5t48.5 41t26.5 81t8 132.5zM302 849q0 -53 -53 -53q-26 0 -39.5 12t-13.5 41q0 54 53 54t53 -54zM483 849q0 -53 -54 -53q-26 0 -39.5 12t-13.5 41q0 54 53 54q54 0 54 -54z" />
    <glyph glyph-name="multiply" unicode="&#xd7;" horiz-adv-x="550" 
d="M405 128l-130 128l-129 -128l-69 76l129 128l-131 128l70 76l131 -128l130 129l70 -77l-131 -128l129 -128z" />
    <glyph glyph-name="Oslash" unicode="&#xd8;" horiz-adv-x="676" 
d="M35 41l55 79q-22 46 -32 108.5t-10 146.5q0 105 16.5 178.5t51.5 120t90 67.5t133 21q66 0 116 -15.5t85 -49.5l50 65l62 -57l-61 -83q20 -45 29.5 -106t9.5 -141q0 -107 -16 -180.5t-51.5 -120t-90.5 -67t-133 -20.5q-64 0 -113 14.5t-84 46.5l-44 -62zM183 375
q0 -42 2 -76t6 -61l271 347q-19 32 -48.5 43.5t-74.5 11.5q-43 0 -72.5 -11t-48 -40.5t-27 -81t-8.5 -132.5zM495 375q0 78 -6 131l-271 -346q19 -29 48.5 -40t73.5 -11q43 0 72.5 11.5t48 41t26.5 81t8 132.5z" />
    <glyph glyph-name="Ugrave" unicode="&#xd9;" horiz-adv-x="662" 
d="M598 254q0 -137 -67.5 -202t-198.5 -65t-199.5 65t-68.5 202v496h129v-494q0 -77 33.5 -111.5t105.5 -34.5t105 34t33 112v494h128v-496zM299 795l-117 115h144l70 -115h-97z" />
    <glyph glyph-name="Uacute" unicode="&#xda;" horiz-adv-x="662" 
d="M598 254q0 -137 -67.5 -202t-198.5 -65t-199.5 65t-68.5 202v496h129v-494q0 -77 33.5 -111.5t105.5 -34.5t105 34t33 112v494h128v-496zM488 909l-124 -115h-97l66 115h155z" />
    <glyph glyph-name="Ucircumflex" unicode="&#xdb;" horiz-adv-x="662" 
d="M598 254q0 -137 -67.5 -202t-198.5 -65t-199.5 65t-68.5 202v496h129v-494q0 -77 33.5 -111.5t105.5 -34.5t105 34t33 112v494h128v-496zM394 909l103 -115h-108l-57 63l-57 -63h-106l99 115h126z" />
    <glyph glyph-name="Udieresis" unicode="&#xdc;" horiz-adv-x="662" 
d="M598 254q0 -137 -67.5 -202t-198.5 -65t-199.5 65t-68.5 202v496h129v-494q0 -77 33.5 -111.5t105.5 -34.5t105 34t33 112v494h128v-496zM295 849q0 -53 -53 -53q-26 0 -39.5 12t-13.5 41q0 54 53 54t53 -54zM476 849q0 -53 -54 -53q-26 0 -39.5 12t-13.5 41q0 54 53 54
q54 0 54 -54z" />
    <glyph glyph-name="Yacute" unicode="&#xdd;" horiz-adv-x="620" 
d="M157 750l127 -310l29 -75h3l28 75l123 310h140l-229 -507v-243h-132v243l-234 507h145zM469 909l-124 -115h-97l66 115h155z" />
    <glyph glyph-name="Thorn" unicode="&#xde;" horiz-adv-x="600" 
d="M566 381q0 -60 -14.5 -104.5t-46.5 -74.5t-83.5 -45t-124.5 -15h-94v-142h-128v750h128v-125h94q72 0 123 -14t83.5 -43.5t47.5 -76t15 -110.5zM434 382q0 37 -7.5 61.5t-23.5 39.5t-42.5 21t-63.5 6h-94v-259h94q36 0 62 5.5t42.5 20t24.5 40t8 65.5z" />
    <glyph glyph-name="germandbls" unicode="&#xdf;" horiz-adv-x="595" 
d="M70 503q0 128 57.5 194t169.5 66q41 0 75 -12t58.5 -32.5t38 -48.5t13.5 -61t-16 -59.5t-35 -48l-35 -39t-16 -32.5q0 -12 13.5 -23.5t34 -25l44 -30.5t44 -39.5t34 -52.5t13.5 -69q0 -47 -15.5 -84t-43.5 -62.5t-67 -39t-85 -13.5q-35 0 -72 8t-63 26l8 107
q19 -14 47.5 -21.5t58.5 -7.5q23 0 43.5 4.5t35.5 14.5t23.5 26t8.5 38q0 27 -14 47.5t-35 38t-45.5 33t-45.5 32t-35 35t-14 42.5q0 27 18 51t39 47t39 46t18 48q0 24 -19.5 38.5t-53.5 14.5q-54 0 -79.5 -34t-25.5 -112v-513h-119v503z" />
    <glyph glyph-name="agrave" unicode="&#xe0;" horiz-adv-x="529" 
d="M370 63l-3 1q-25 -35 -64 -54t-89 -19q-78 0 -125 47t-47 149q0 86 51 135.5t148 49.5q32 0 60.5 -5t51.5 -13v49q0 57 -27 81t-88 24q-44 0 -79 -8.5t-73 -25.5l-10 101q41 20 86.5 29t96.5 9q58 0 98 -13t65.5 -40.5t37 -70.5t11.5 -104v-385h-91zM353 268
q-11 6 -33.5 11.5t-56.5 5.5q-57 0 -82.5 -24.5t-25.5 -72.5q0 -54 25 -75.5t66 -21.5q21 0 40.5 6.5t34 18t23.5 26.5t9 32v94zM233 661l-106 142h138l59 -142h-91z" />
    <glyph glyph-name="aacute" unicode="&#xe1;" horiz-adv-x="529" 
d="M370 63l-3 1q-25 -35 -64 -54t-89 -19q-78 0 -125 47t-47 149q0 86 51 135.5t148 49.5q32 0 60.5 -5t51.5 -13v49q0 57 -27 81t-88 24q-44 0 -79 -8.5t-73 -25.5l-10 101q41 20 86.5 29t96.5 9q58 0 98 -13t65.5 -40.5t37 -70.5t11.5 -104v-385h-91zM353 268
q-11 6 -33.5 11.5t-56.5 5.5q-57 0 -82.5 -24.5t-25.5 -72.5q0 -54 25 -75.5t66 -21.5q21 0 40.5 6.5t34 18t23.5 26.5t9 32v94zM394 803l-108 -142h-90l60 142h138z" />
    <glyph glyph-name="acircumflex" unicode="&#xe2;" horiz-adv-x="529" 
d="M370 63l-3 1q-25 -35 -64 -54t-89 -19q-78 0 -125 47t-47 149q0 86 51 135.5t148 49.5q32 0 60.5 -5t51.5 -13v49q0 57 -27 81t-88 24q-44 0 -79 -8.5t-73 -25.5l-10 101q41 20 86.5 29t96.5 9q58 0 98 -13t65.5 -40.5t37 -70.5t11.5 -104v-385h-91zM353 268
q-11 6 -33.5 11.5t-56.5 5.5q-57 0 -82.5 -24.5t-25.5 -72.5q0 -54 25 -75.5t66 -21.5q21 0 40.5 6.5t34 18t23.5 26.5t9 32v94zM312 803l96 -142h-91l-55 89l-56 -89h-90l94 142h102z" />
    <glyph glyph-name="atilde" unicode="&#xe3;" horiz-adv-x="529" 
d="M370 63l-3 1q-25 -35 -64 -54t-89 -19q-78 0 -125 47t-47 149q0 86 51 135.5t148 49.5q32 0 60.5 -5t51.5 -13v49q0 57 -27 81t-88 24q-44 0 -79 -8.5t-73 -25.5l-10 101q41 20 86.5 29t96.5 9q58 0 98 -13t65.5 -40.5t37 -70.5t11.5 -104v-385h-91zM353 268
q-11 6 -33.5 11.5t-56.5 5.5q-57 0 -82.5 -24.5t-25.5 -72.5q0 -54 25 -75.5t66 -21.5q21 0 40.5 6.5t34 18t23.5 26.5t9 32v94zM115 678q3 54 26.5 88.5t62.5 34.5q22 0 38.5 -9t30.5 -19.5l26.5 -19.5t27.5 -9q25 0 35 46l56 -1q-4 -56 -28.5 -89t-62.5 -33q-22 0 -38 9
t-30 19.5l-26.5 19.5t-26.5 9t-23 -13t-13 -34z" />
    <glyph glyph-name="adieresis" unicode="&#xe4;" horiz-adv-x="529" 
d="M370 63l-3 1q-25 -35 -64 -54t-89 -19q-78 0 -125 47t-47 149q0 86 51 135.5t148 49.5q32 0 60.5 -5t51.5 -13v49q0 57 -27 81t-88 24q-44 0 -79 -8.5t-73 -25.5l-10 101q41 20 86.5 29t96.5 9q58 0 98 -13t65.5 -40.5t37 -70.5t11.5 -104v-385h-91zM353 268
q-11 6 -33.5 11.5t-56.5 5.5q-57 0 -82.5 -24.5t-25.5 -72.5q0 -54 25 -75.5t66 -21.5q21 0 40.5 6.5t34 18t23.5 26.5t9 32v94zM239 742q0 -56 -54 -56q-27 0 -40.5 13t-13.5 43q0 57 54 57t54 -57zM401 742q0 -56 -54 -56q-27 0 -40.5 13t-13.5 43q0 57 54 57t54 -57z" />
    <glyph glyph-name="aring" unicode="&#xe5;" horiz-adv-x="529" 
d="M370 63l-3 1q-25 -35 -64 -54t-89 -19q-78 0 -125 47t-47 149q0 86 51 135.5t148 49.5q32 0 60.5 -5t51.5 -13v49q0 57 -27 81t-88 24q-44 0 -79 -8.5t-73 -25.5l-10 101q41 20 86.5 29t96.5 9q58 0 98 -13t65.5 -40.5t37 -70.5t11.5 -104v-385h-91zM353 268
q-11 6 -33.5 11.5t-56.5 5.5q-57 0 -82.5 -24.5t-25.5 -72.5q0 -54 25 -75.5t66 -21.5q21 0 40.5 6.5t34 18t23.5 26.5t9 32v94zM157 743q0 38 25 60.5t82 22.5q54 0 81 -23t27 -60q0 -82 -108 -82q-52 0 -79.5 20t-27.5 62zM217 743q0 -16 11 -25t38 -9q48 0 48 34
q0 15 -11 24.5t-37 9.5q-27 0 -38 -9.5t-11 -24.5z" />
    <glyph glyph-name="ae" unicode="&#xe6;" horiz-adv-x="837" 
d="M259 612q63 0 102.5 -17t61.5 -53q28 34 68 52t95 18q48 0 87 -16t67.5 -49.5t44 -86t15.5 -125.5q0 -15 -0.5 -31t-2.5 -30h-332q2 -50 12.5 -84t30 -54.5t48.5 -29t68 -8.5q40 0 76 8.5t70 25.5l13 -104q-34 -18 -78.5 -28.5t-95.5 -10.5q-78 0 -127.5 24.5t-77.5 66.5
q-28 -44 -73.5 -67t-104.5 -23q-87 0 -135.5 47t-48.5 149q0 86 51 135.5t148 49.5q33 0 61 -5.5t51 -13.5v50q0 57 -27 81t-88 24q-44 0 -79 -8.5t-73 -25.5l-10 101q84 38 183 38zM353 267q-11 6 -33.5 11.5t-56.5 5.5q-57 0 -83 -24.5t-26 -72.5q0 -54 25.5 -75.5
t66.5 -21.5q46 0 76.5 26t30.5 68v83zM690 358q0 42 -8.5 70.5t-23 46.5t-34.5 25.5t-45 7.5q-59 0 -85 -34.5t-30 -115.5h226z" />
    <glyph glyph-name="ccedilla" unicode="&#xe7;" horiz-adv-x="451" 
d="M233 -8q-97 13 -146 88t-49 223q0 155 58.5 232t187.5 77q35 0 70 -7.5t61 -18.5l-7 -107q-22 9 -47.5 14.5t-51.5 5.5q-41 0 -69 -10t-45.5 -33.5t-25.5 -61t-8 -91.5q0 -114 37 -161t108 -47q59 0 105 26l9 -98q-39 -27 -106 -33l-29 -177h-110z" />
    <glyph glyph-name="egrave" unicode="&#xe8;" horiz-adv-x="533" 
d="M305 -11q-140 0 -203.5 78.5t-63.5 245.5q0 148 57.5 223.5t178.5 75.5q103 0 163 -65.5t60 -211.5q0 -15 -1 -31t-3 -30h-332q2 -50 12 -84t29.5 -54.5t48.5 -29t69 -8.5t75.5 8t70.5 23l13 -101q-34 -18 -78 -28.5t-96 -10.5zM386 358q-1 84 -31 117t-80 33
q-60 0 -86 -34.5t-30 -115.5h227zM245 661l-106 142h138l59 -142h-91z" />
    <glyph glyph-name="eacute" unicode="&#xe9;" horiz-adv-x="533" 
d="M305 -11q-140 0 -203.5 78.5t-63.5 245.5q0 148 57.5 223.5t178.5 75.5q103 0 163 -65.5t60 -211.5q0 -15 -1 -31t-3 -30h-332q2 -50 12 -84t29.5 -54.5t48.5 -29t69 -8.5t75.5 8t70.5 23l13 -101q-34 -18 -78 -28.5t-96 -10.5zM386 358q-1 84 -31 117t-80 33
q-60 0 -86 -34.5t-30 -115.5h227zM406 803l-108 -142h-90l60 142h138z" />
    <glyph glyph-name="ecircumflex" unicode="&#xea;" horiz-adv-x="533" 
d="M305 -11q-140 0 -203.5 78.5t-63.5 245.5q0 148 57.5 223.5t178.5 75.5q103 0 163 -65.5t60 -211.5q0 -15 -1 -31t-3 -30h-332q2 -50 12 -84t29.5 -54.5t48.5 -29t69 -8.5t75.5 8t70.5 23l13 -101q-34 -18 -78 -28.5t-96 -10.5zM386 358q-1 84 -31 117t-80 33
q-60 0 -86 -34.5t-30 -115.5h227zM324 803l96 -142h-91l-55 89l-56 -89h-90l94 142h102z" />
    <glyph glyph-name="edieresis" unicode="&#xeb;" horiz-adv-x="533" 
d="M305 -11q-140 0 -203.5 78.5t-63.5 245.5q0 148 57.5 223.5t178.5 75.5q103 0 163 -65.5t60 -211.5q0 -15 -1 -31t-3 -30h-332q2 -50 12 -84t29.5 -54.5t48.5 -29t69 -8.5t75.5 8t70.5 23l13 -101q-34 -18 -78 -28.5t-96 -10.5zM386 358q-1 84 -31 117t-80 33
q-60 0 -86 -34.5t-30 -115.5h227zM239 742q0 -56 -54 -56q-27 0 -40.5 13t-13.5 43q0 57 54 57t54 -57zM401 742q0 -56 -54 -56q-27 0 -40.5 13t-13.5 43q0 57 54 57t54 -57z" />
    <glyph glyph-name="igrave" unicode="&#xec;" horiz-adv-x="291" 
d="M84 0v599l122 6v-605h-122zM117 661l-106 142h138l59 -142h-91z" />
    <glyph glyph-name="iacute" unicode="&#xed;" horiz-adv-x="291" 
d="M84 0v599l122 6v-605h-122zM278 803l-108 -142h-90l60 142h138z" />
    <glyph glyph-name="icircumflex" unicode="&#xee;" horiz-adv-x="291" 
d="M84 0v599l122 6v-605h-122zM197 803l96 -142h-91l-55 89l-56 -89h-90l94 142h102z" />
    <glyph glyph-name="idieresis" unicode="&#xef;" horiz-adv-x="291" 
d="M84 0v599l122 6v-605h-122zM122 742q0 -56 -54 -56q-27 0 -40.5 13t-13.5 43q0 57 54 57t54 -57zM284 742q0 -56 -54 -56q-27 0 -40.5 13t-13.5 43q0 57 54 57t54 -57z" />
    <glyph glyph-name="eth" unicode="&#xf0;" horiz-adv-x="567" 
d="M369 697q34 -36 63 -79t50.5 -89.5t34 -95t12.5 -97.5q0 -95 -15 -161t-45.5 -107t-76 -60t-106.5 -19q-57 0 -103 14t-78 48t-49.5 92t-17.5 146q0 143 54.5 207t161.5 64q35 0 64.5 -7t54.5 -24l2 2q-35 60 -84 111l-80 -56l-44 50l72 52q-19 15 -39.5 29l-41.5 28
l85 56q39 -23 76 -56l76 55l43 -55zM161 283q0 -59 8 -96t23 -57.5t37.5 -28t51.5 -7.5q64 0 94 49t30 166q0 79 -30.5 112.5t-92.5 33.5q-33 0 -56 -8.5t-37.5 -28.5t-21 -53t-6.5 -82z" />
    <glyph glyph-name="ntilde" unicode="&#xf1;" horiz-adv-x="571" 
d="M393 0v402q0 54 -26 77.5t-76 23.5q-30 0 -60 -14t-46 -39v-450h-119v600l86 6l18 -54q30 29 70 45t85 16q87 0 137 -52.5t50 -157.5v-403h-119zM142 678q3 54 26.5 88.5t62.5 34.5q22 0 38.5 -9t30.5 -19.5l26.5 -19.5t27.5 -9q25 0 35 46l56 -1q-4 -56 -28.5 -89
t-62.5 -33q-22 0 -38 9t-30 19.5l-26.5 19.5t-26.5 9t-23 -13t-13 -34z" />
    <glyph glyph-name="ograve" unicode="&#xf2;" horiz-adv-x="566" 
d="M528 299q0 -86 -14 -145.5t-44 -96.5t-76 -53.5t-110 -16.5q-63 0 -109.5 16.5t-77 53.5t-45 96.5t-14.5 145.5t14.5 145.5t45 97t77 54.5t109.5 17q64 0 110 -17t76 -54.5t44 -97t14 -145.5zM161 299q0 -62 7 -102.5t21.5 -64.5t38 -33.5t56.5 -9.5t56 9.5t37 33.5
t20.5 64.5t6.5 102.5t-6.5 102.5t-20.5 64.5t-37 33.5t-56 9.5t-56.5 -9.5t-38.5 -33.5t-21.5 -64.5t-6.5 -102.5zM255 661l-106 142h138l59 -142h-91z" />
    <glyph glyph-name="oacute" unicode="&#xf3;" horiz-adv-x="566" 
d="M528 299q0 -86 -14 -145.5t-44 -96.5t-76 -53.5t-110 -16.5q-63 0 -109.5 16.5t-77 53.5t-45 96.5t-14.5 145.5t14.5 145.5t45 97t77 54.5t109.5 17q64 0 110 -17t76 -54.5t44 -97t14 -145.5zM161 299q0 -62 7 -102.5t21.5 -64.5t38 -33.5t56.5 -9.5t56 9.5t37 33.5
t20.5 64.5t6.5 102.5t-6.5 102.5t-20.5 64.5t-37 33.5t-56 9.5t-56.5 -9.5t-38.5 -33.5t-21.5 -64.5t-6.5 -102.5zM416 803l-108 -142h-90l60 142h138z" />
    <glyph glyph-name="ocircumflex" unicode="&#xf4;" horiz-adv-x="566" 
d="M528 299q0 -86 -14 -145.5t-44 -96.5t-76 -53.5t-110 -16.5q-63 0 -109.5 16.5t-77 53.5t-45 96.5t-14.5 145.5t14.5 145.5t45 97t77 54.5t109.5 17q64 0 110 -17t76 -54.5t44 -97t14 -145.5zM161 299q0 -62 7 -102.5t21.5 -64.5t38 -33.5t56.5 -9.5t56 9.5t37 33.5
t20.5 64.5t6.5 102.5t-6.5 102.5t-20.5 64.5t-37 33.5t-56 9.5t-56.5 -9.5t-38.5 -33.5t-21.5 -64.5t-6.5 -102.5zM334 803l96 -142h-91l-55 89l-56 -89h-90l94 142h102z" />
    <glyph glyph-name="otilde" unicode="&#xf5;" horiz-adv-x="566" 
d="M528 299q0 -86 -14 -145.5t-44 -96.5t-76 -53.5t-110 -16.5q-63 0 -109.5 16.5t-77 53.5t-45 96.5t-14.5 145.5t14.5 145.5t45 97t77 54.5t109.5 17q64 0 110 -17t76 -54.5t44 -97t14 -145.5zM161 299q0 -62 7 -102.5t21.5 -64.5t38 -33.5t56.5 -9.5t56 9.5t37 33.5
t20.5 64.5t6.5 102.5t-6.5 102.5t-20.5 64.5t-37 33.5t-56 9.5t-56.5 -9.5t-38.5 -33.5t-21.5 -64.5t-6.5 -102.5zM137 678q3 54 26.5 88.5t62.5 34.5q22 0 38.5 -9t30.5 -19.5l26.5 -19.5t27.5 -9q25 0 35 46l56 -1q-4 -56 -28.5 -89t-62.5 -33q-22 0 -38 9t-30 19.5
l-26.5 19.5t-26.5 9t-23 -13t-13 -34z" />
    <glyph glyph-name="odieresis" unicode="&#xf6;" horiz-adv-x="566" 
d="M528 299q0 -86 -14 -145.5t-44 -96.5t-76 -53.5t-110 -16.5q-63 0 -109.5 16.5t-77 53.5t-45 96.5t-14.5 145.5t14.5 145.5t45 97t77 54.5t109.5 17q64 0 110 -17t76 -54.5t44 -97t14 -145.5zM161 299q0 -62 7 -102.5t21.5 -64.5t38 -33.5t56.5 -9.5t56 9.5t37 33.5
t20.5 64.5t6.5 102.5t-6.5 102.5t-20.5 64.5t-37 33.5t-56 9.5t-56.5 -9.5t-38.5 -33.5t-21.5 -64.5t-6.5 -102.5zM256 742q0 -56 -54 -56q-27 0 -40.5 13t-13.5 43q0 57 54 57t54 -57zM418 742q0 -56 -54 -56q-27 0 -40.5 13t-13.5 43q0 57 54 57t54 -57z" />
    <glyph glyph-name="divide" unicode="&#xf7;" horiz-adv-x="550" 
d="M352 511q0 -33 -20 -49.5t-56 -16.5t-56.5 14t-20.5 52q0 32 20.5 49t56.5 17t56 -17t20 -49zM352 163q0 -33 -20 -49t-56 -16t-56.5 13.5t-20.5 51.5q0 33 20.5 49.5t56.5 16.5t56 -16.5t20 -49.5zM55 280v114h440v-114h-440z" />
    <glyph glyph-name="oslash" unicode="&#xf8;" horiz-adv-x="566" 
d="M30 37l43 59q-35 70 -35 203q0 86 15 145.5t45 97t76.5 54.5t109.5 17q50 0 89 -10t68 -33l33 45l51 -45l-39 -54q42 -75 42 -217q0 -86 -14 -145.5t-44 -96.5t-76 -53.5t-110 -16.5q-55 0 -96.5 12t-71.5 39l-35 -47zM405 299q0 32 -1.5 57.5t-3.5 47.5l-216 -262
q14 -29 38.5 -41t61.5 -12q33 0 56 9.5t37.5 33.5t21 64.5t6.5 102.5zM161 299q0 -50 3 -87l212 256q-15 23 -37.5 32t-54.5 9q-33 0 -56.5 -9.5t-38.5 -33.5t-21.5 -64.5t-6.5 -102.5z" />
    <glyph glyph-name="ugrave" unicode="&#xf9;" horiz-adv-x="564" 
d="M505 198q0 -209 -223 -209q-114 0 -168.5 53.5t-54.5 155.5v405h119v-403q0 -100 104 -100t104 100v403h119v-405zM253 661l-106 142h138l59 -142h-91z" />
    <glyph glyph-name="uacute" unicode="&#xfa;" horiz-adv-x="564" 
d="M505 198q0 -209 -223 -209q-114 0 -168.5 53.5t-54.5 155.5v405h119v-403q0 -100 104 -100t104 100v403h119v-405zM414 803l-108 -142h-90l60 142h138z" />
    <glyph glyph-name="ucircumflex" unicode="&#xfb;" horiz-adv-x="564" 
d="M505 198q0 -209 -223 -209q-114 0 -168.5 53.5t-54.5 155.5v405h119v-403q0 -100 104 -100t104 100v403h119v-405zM333 803l96 -142h-91l-55 89l-56 -89h-90l94 142h102z" />
    <glyph glyph-name="udieresis" unicode="&#xfc;" horiz-adv-x="564" 
d="M506 198q0 -209 -223 -209q-114 0 -168.5 53.5t-54.5 155.5v405h119v-403q0 -100 104 -100t104 100v403h119v-405zM255 742q0 -56 -54 -56q-27 0 -40.5 13t-13.5 43q0 57 54 57t54 -57zM417 742q0 -56 -54 -56q-27 0 -40.5 13t-13.5 43q0 57 54 57t54 -57z" />
    <glyph glyph-name="yacute" unicode="&#xfd;" horiz-adv-x="588" 
d="M166 -67q29 0 51.5 13t37.5 51l3 9l-236 597h137l132 -401l24 -77h3l18 78l103 400h127l-191 -601q-14 -44 -33 -75t-42.5 -50t-52 -27.5t-61.5 -8.5q-50 0 -90 17l11 89q28 -14 59 -14zM428 803l-108 -142h-90l60 142h138z" />
    <glyph glyph-name="thorn" unicode="&#xfe;" horiz-adv-x="577" 
d="M539 302q0 -163 -57 -237.5t-155 -74.5q-38 0 -73 11t-63 39l-3 -1l2 -81v-105h-120v933l120 7v-159l-2 -80l3 -2q28 28 65.5 44t81.5 16q47 0 84 -15t63 -51t40 -95.5t14 -148.5zM414 305q0 60 -7 98t-21.5 60t-36 30.5t-50.5 8.5q-36 0 -64 -15t-45 -42v-291
q14 -25 40 -42.5t65 -17.5q27 0 49 8.5t37.5 31.5t24 64.5t8.5 106.5z" />
    <glyph glyph-name="ydieresis" unicode="&#xff;" horiz-adv-x="588" 
d="M166 -67q29 0 51.5 13t37.5 51l3 9l-236 597h137l132 -401l24 -77h3l18 78l103 400h127l-191 -601q-14 -44 -33 -75t-42.5 -50t-52 -27.5t-61.5 -8.5q-50 0 -90 17l11 89q28 -14 59 -14zM268 742q0 -56 -54 -56q-27 0 -40.5 13t-13.5 43q0 57 54 57t54 -57zM430 742
q0 -56 -54 -56q-27 0 -40.5 13t-13.5 43q0 57 54 57t54 -57z" />
    <glyph glyph-name="mu" unicode="&#xb5;" horiz-adv-x="570" 
d="M296 -10q-41 0 -73.5 17t-52.5 52l-2 -1q2 -53 5 -104t8 -99l-115 -9v757h119v-405q0 -46 29.5 -72t77.5 -26q45 0 73 22t28 67v414h119v-600l-84 -8l-15 46h-3q-18 -24 -47.5 -37.5t-66.5 -13.5z" />
    <glyph glyph-name="notequal" unicode="&#x2260;" horiz-adv-x="589" 
d="M445 549l-36 -77h90v-97h-136l-41 -89h177v-97h-223l-55 -119l-78 38l38 81h-91v97h136l42 89h-178v97h224l54 115z" />
    <glyph glyph-name="infinity" unicode="&#x221e;" horiz-adv-x="690" 
d="M490 165q-50 0 -85 19t-61 54q-22 -32 -55 -52.5t-88 -20.5q-35 0 -65 12t-51.5 35.5t-34 57t-12.5 76.5q0 40 10.5 73t31 57t50.5 37t70 13q50 0 84.5 -19.5t60.5 -54.5q22 32 55.5 53t89.5 21q34 0 64 -12t51.5 -35.5t34 -57t12.5 -76.5q0 -40 -10.5 -73t-31 -57
t-50.5 -37t-70 -13zM205 268q19 0 33.5 8.5t26 23t20.5 33t18 39.5q-18 26 -40.5 42t-54.5 16q-35 0 -53 -23.5t-18 -58.5q0 -40 19.5 -60t48.5 -20zM485 423q-20 0 -34.5 -8.5t-25.5 -23t-20 -33.5t-18 -40q18 -27 40.5 -42t55.5 -15q35 0 52.5 23.5t17.5 58.5
q0 39 -19.5 59.5t-48.5 20.5z" />
    <glyph glyph-name="lessequal" unicode="&#x2264;" horiz-adv-x="589" 
d="M246 426l-77 -22v-3l78 -22l253 -74v-119l-418 159v118l417 164v-122zM86 49v101h414v-101h-414z" />
    <glyph glyph-name="greaterequal" unicode="&#x2265;" horiz-adv-x="589" 
d="M82 305l252 74l79 22v3l-78 22l-252 79v122l417 -164v-118l-418 -159v119zM82 49v101h414v-101h-414z" />
    <glyph glyph-name="partialdiff" unicode="&#x2202;" horiz-adv-x="583" 
d="M296 556q75 0 128 -45l2 2q-13 71 -52 104t-108 33q-53 0 -92.5 -13.5t-74.5 -40.5l-31 87q43 34 94 54t125 20q51 0 97.5 -19t82 -60t57 -106t21.5 -157t-19 -170.5t-56.5 -135.5t-93.5 -89.5t-129 -32.5q-107 0 -158 60.5t-51 176.5q0 81 18 143t52 104t81.5 63.5
t106.5 21.5zM418 367q0 18 -6.5 34.5t-20 29.5t-33 21t-46.5 8q-69 0 -110 -60.5t-41 -187.5q0 -125 104 -125q37 0 65.5 21.5t48 59t29.5 88.5t10 111z" />
    <glyph glyph-name="summation" unicode="&#x2211;" horiz-adv-x="626" 
d="M266 18l-49 -64h371l-3 -105h-514v70l273 390l-273 363v78h499l3 -107h-347l-1 -2l49 -62l194 -258v-25z" />
    <glyph glyph-name="product" unicode="&#x220f;" horiz-adv-x="682" 
d="M129 -151v807l-80 8l-3 86h592l-3 -85l-79 -8v-808h-113v799h-201v-799h-113z" />
    <glyph glyph-name="pi" unicode="&#x3c0;" horiz-adv-x="620" 
d="M388 495h-153v-495h-119v494q-26 -1 -43 -5.5t-30 -13.5l-28 97q42 31 146 31h420v-107h-75v-342q0 -37 12 -51t46 -14v-93q-53 0 -87 8t-53.5 27t-27.5 49t-8 74v341z" />
    <glyph glyph-name="integral" unicode="&#x222b;" horiz-adv-x="298" 
d="M210 38q0 -103 -49 -149.5t-155 -46.5l-3 80q43 1 64 26.5t21 84.5v577q0 94 49.5 141t154.5 48l3 -81q-41 0 -63 -26t-22 -82v-572z" />
    <glyph glyph-name="uni03A9" unicode="&#x3a9;" horiz-adv-x="675" 
d="M337 761q68 0 121 -18t90 -57t56 -100t19 -147q0 -98 -38 -181.5t-113 -144.5v-3h154v-110h-259v162q54 51 88 116.5t34 155.5q0 57 -9 96.5t-28 64t-47.5 35.5t-67.5 11t-67 -11t-47 -35.5t-28 -64t-9 -96.5q0 -90 33.5 -155.5t88.5 -116.5v-162h-260v110h155l1 3
q-76 60 -114 142t-38 184q0 167 75 244.5t210 77.5z" />
    <glyph glyph-name="Omega" unicode="&#x2126;" horiz-adv-x="675" 
d="M337 761q68 0 121 -18t90 -57t56 -100t19 -147q0 -98 -38 -181.5t-113 -144.5v-3h154v-110h-259v162q54 51 88 116.5t34 155.5q0 57 -9 96.5t-28 64t-47.5 35.5t-67.5 11t-67 -11t-47 -35.5t-28 -64t-9 -96.5q0 -90 33.5 -155.5t88.5 -116.5v-162h-260v110h155l1 3
q-76 60 -114 142t-38 184q0 167 75 244.5t210 77.5z" />
    <glyph glyph-name="radical" unicode="&#x221a;" horiz-adv-x="553" 
d="M6 500h161l81 -285l21 -78h3l17 79l140 575h126l-209 -791h-145l-121 386h-74v114z" />
    <glyph glyph-name="approxequal" unicode="&#x2248;" horiz-adv-x="589" 
d="M395 351q-28 0 -54 7t-51 16t-49 16t-47 7q-29 0 -54.5 -8t-49.5 -23v98q23 14 49 22t55 8q27 0 53 -7.5t51 -16l49 -16t48 -7.5q30 0 55 8.5t49 22.5v-97q-23 -14 -48.5 -22t-55.5 -8zM395 168q-28 0 -54 7t-51 16t-49 16t-47 7q-29 0 -54.5 -8t-49.5 -22v97
q23 14 49 22t55 8q27 0 53 -7t51 -16t49 -16t48 -7q30 0 55 8t49 23v-97q-23 -14 -48.5 -22.5t-55.5 -8.5z" />
    <glyph glyph-name="Delta" unicode="&#x2206;" horiz-adv-x="678" 
d="M643 0h-610l263 754h85zM313 514l-136 -405h320l-134 405l-23 78h-3z" />
    <glyph glyph-name="uni0394" unicode="&#x394;" horiz-adv-x="678" 
d="M643 0h-610l263 754h85zM313 514l-136 -405h320l-134 405l-23 78h-3z" />
    <glyph glyph-name="lozenge" unicode="&#x25ca;" horiz-adv-x="564" 
d="M282 666l257 -330l-257 -331l-257 331zM281 165l134 171l-134 172l-134 -172z" />
    </font>
</defs>
</svg>
